<svg width="26" height="60" viewBox="0 0 26 60" fill="#000" xmlns="http://www.w3.org/2000/svg">
<path fill-rule="evenodd" clip-rule="evenodd" d="M24.007 38.987C24.559 38.987 25.007 38.54 25.007 37.987V16.987C25.007 16.434 24.559 15.987 24.007 15.987H22.788L20.978 8.74501C20.971 8.71801 20.954 8.69701 20.945 8.67101C20.924 8.60801 20.899 8.54701 20.865 8.48901C20.843 8.45101 20.818 8.41701 20.791 8.38201C20.771 8.35701 20.759 8.32701 20.736 8.30401L13.236 0.304007C12.858 -0.0999929 12.155 -0.0999929 11.777 0.304007L4.27701 8.30401C4.25501 8.32801 4.24201 8.35701 4.22201 8.38201C4.19501 8.41701 4.17001 8.45101 4.14801 8.48901C4.11401 8.54701 4.09001 8.60801 4.06801 8.67101C4.05901 8.69701 4.04201 8.71801 4.03601 8.74501L2.22501 15.987H1.00601C0.454012 15.987 0.00601196 16.434 0.00601196 16.987V37.987C0.00601196 38.54 0.454012 38.987 1.00601 38.987H2.00601V47.987H0.00601196V49.987H2.00601V51.987H0.00601196V53.987H2.00601V57.987C2.00601 58.54 2.45401 58.987 3.00601 58.987H6.00601V59.013H8.00601V58.987H10.006V59.013H12.006V58.987H13.006V59.013H15.006V58.987H17.006V59.013H19.006V58.987H22.006C22.558 58.987 23.006 58.54 23.006 57.987V53.987H25.006V51.987H23.006V49.987H25.006V47.987H23.006V38.987H24.007V38.987ZM12.507 2.44901L17.699 7.98701H7.31501L12.507 2.44901V2.44901ZM5.78701 9.98701H19.225L20.725 15.987H19.006V12.987H17.006V15.987H15.006V12.987H13.006V15.987H12.006V12.987H10.006V15.987H8.00601V12.987H6.00601V15.987H4.28701L5.78701 9.98701V9.98701ZM2.00701 17.987H3.00701H22.007H23.007V36.987H22.007H3.00701H2.00701V17.987V17.987ZM10.007 38.987V47.987H8.00701V38.987H10.007V38.987ZM13.007 38.987V47.987H12.007V38.987H13.007V38.987ZM10.007 49.987V51.987H8.00701V49.987H10.007V49.987ZM12.007 49.987H13.007V51.987H12.007V49.987V49.987ZM15.007 49.987H17.007V51.987H15.007V49.987V49.987ZM15.007 47.987V38.987H17.007V47.987H15.007V47.987ZM4.00701 38.987H6.00701V47.987H4.00701V38.987V38.987ZM4.00701 49.987H6.00701V51.987H4.00701V49.987V49.987ZM4.00701 56.987V53.987H6.00701V56.987H4.00701V56.987ZM8.00701 56.987V53.987H10.007V56.987H8.00701V56.987ZM12.007 56.987V53.987H13.007V56.987H12.007V56.987ZM15.007 56.987V53.987H17.007V56.987H15.007V56.987ZM21.007 56.987H19.007V53.987H21.007V56.987V56.987ZM21.007 51.987H19.007V49.987H21.007V51.987V51.987ZM21.007 47.987H19.007V38.987H21.007V47.987V47.987Z" fill="black"/>
<path fill-rule="evenodd" clip-rule="evenodd" d="M12.507 34.987C16.643 34.987 20.007 31.623 20.007 27.487C20.007 23.351 16.643 19.987 12.507 19.987C8.37099 19.987 5.00699 23.351 5.00699 27.487C5.00699 31.623 8.37099 34.987 12.507 34.987V34.987ZM12.507 21.987C15.54 21.987 18.007 24.455 18.007 27.487C18.007 30.519 15.54 32.987 12.507 32.987C9.47399 32.987 7.00699 30.519 7.00699 27.487C7.00699 24.455 9.47399 21.987 12.507 21.987V21.987Z" fill="black"/>
<path fill-rule="evenodd" clip-rule="evenodd" d="M16.007 27.987V25.987H13.007V22.987H11.007V25.987V27.987H13.007H16.007Z" fill="black"/>
</svg>
