<svg width="56" height="56" viewBox="0 0 56 56" fill="none" xmlns="http://www.w3.org/2000/svg">
<path fill-rule="evenodd" clip-rule="evenodd" d="M49.5956 14.685L48.9849 15.2957C47.8412 16.4394 47.0093 16.7703 45.2765 16.7703C41.7728 16.7703 39.2297 14.2272 39.2297 10.7235C39.2297 8.99068 39.5606 8.15882 40.7043 7.01512L41.315 6.40439L34.9106 0L0 34.9106L6.40439 41.315L7.01512 40.7043C8.15882 39.5606 8.99068 39.2297 10.7235 39.2297C14.2272 39.2297 16.7703 41.7728 16.7703 45.2765C16.7703 47.0093 16.4394 47.8412 15.2957 48.9849L14.685 49.5956L21.0894 56L56 21.0894L49.5956 14.685ZM17.1061 49.571C18.1358 48.3435 18.5003 47.1609 18.5003 45.2769C18.5003 40.8447 15.1582 37.5025 10.7259 37.5025C8.84193 37.5025 7.65936 37.8671 6.431 38.8967L2.44531 34.9111L22.8195 14.5369L25.664 17.3815L26.8855 16.16L24.0409 13.3155L34.913 2.44336L38.8987 6.42991C37.869 7.6574 37.5045 8.83998 37.5045 10.724C37.5045 15.1563 40.8466 18.4984 45.2789 18.4984C47.1629 18.4984 48.3455 18.1339 49.5738 17.1042L53.5595 21.0899L42.6874 31.962L39.8429 29.1174L38.6214 30.3388L41.466 33.1834L21.0918 53.5576L17.1061 49.571Z" fill="black"/>
<path fill-rule="evenodd" clip-rule="evenodd" d="M30.842 22.5635L27.3867 19.1082L28.6082 17.8867L32.0635 21.342L30.842 22.5635Z" fill="black"/>
<path fill-rule="evenodd" clip-rule="evenodd" d="M36.8928 28.6123L33.4375 25.157L34.6589 23.9355L38.1142 27.3908L36.8928 28.6123Z" fill="black"/>
</svg>
