<svg width="24" height="24" viewBox="0 0 24 24" fill="none" xmlns="http://www.w3.org/2000/svg">
<path fill-rule="evenodd" clip-rule="evenodd" d="M14.4274 5.42188H1.85742H1.35742V5.92188V18.0794V18.5794H1.85742H20.0937H20.5937V18.0794V11.4637C20.2806 11.632 19.9455 11.7646 19.5937 11.8558V17.5794H2.35742V6.42188H14.0578C14.1418 6.07085 14.2668 5.73574 14.4274 5.42188ZM13.9337 7.44813H5.90993H5.40993V7.94813C5.40993 8.35291 5.24913 8.74112 4.9629 9.02735C4.67667 9.31358 4.28846 9.47438 3.88367 9.47438H3.38367V9.97438V14.0269V14.5269H3.88367C4.28846 14.5269 4.67667 14.6877 4.9629 14.9739C5.24913 15.2601 5.40993 15.6483 5.40993 16.0531V16.5531H5.90993H16.0412H16.5412V16.0531C16.5412 15.6483 16.702 15.2601 16.9882 14.9739C17.2744 14.6877 17.6627 14.5269 18.0674 14.5269H18.5674V14.0269V11.999C18.5301 11.9999 18.4928 12.0003 18.4552 12.0003C18.1514 12.0003 17.8545 11.9704 17.5674 11.9132V13.5768C17.0837 13.6745 16.6352 13.9127 16.2811 14.2668C15.927 14.6209 15.6888 15.0694 15.5912 15.5531H6.35996C6.26228 15.0694 6.02414 14.6209 5.67 14.2668C5.31586 13.9127 4.86741 13.6745 4.38367 13.5768V10.4244C4.86741 10.3267 5.31586 10.0886 5.67 9.73446C6.02414 9.38032 6.26228 8.93186 6.35996 8.44813H14.0378C13.9695 8.13582 13.9336 7.81145 13.9336 7.47868C13.9336 7.46849 13.9336 7.4583 13.9337 7.44813ZM10.9761 14.1028C11.5336 14.1028 12.0682 13.8814 12.4624 13.4872C12.8566 13.093 13.0781 12.5583 13.0781 12.0009C13.0781 11.4434 12.8566 10.9088 12.4624 10.5146C12.0682 10.1204 11.5336 9.89893 10.9761 9.89893C10.4186 9.89893 9.88401 10.1204 9.48982 10.5146C9.09563 10.9088 8.87417 11.4434 8.87417 12.0009C8.87417 12.5583 9.09563 13.093 9.48982 13.4872C9.88401 13.8814 10.4186 14.1028 10.9761 14.1028ZM13.1695 14.1943C12.5878 14.776 11.7988 15.1028 10.9761 15.1028C10.1534 15.1028 9.36444 14.776 8.78271 14.1943C8.20098 13.6126 7.87417 12.8236 7.87417 12.0009C7.87417 11.1782 8.20098 10.3892 8.78271 9.80747C9.36444 9.22574 10.1534 8.89893 10.9761 8.89893C11.7988 8.89893 12.5878 9.22574 13.1695 9.80747C13.7513 10.3892 14.0781 11.1782 14.0781 12.0009C14.0781 12.8236 13.7513 13.6126 13.1695 14.1943Z" fill="#2387F5"/>
<path d="M21.4835 5.74895L20.3363 7.46378C20.3319 7.47042 20.3366 7.47934 20.3446 7.47934H21.0509C21.0509 8.16773 20.7775 8.82793 20.2907 9.3147C19.8039 9.80146 19.1437 10.0749 18.4553 10.0749C18.0227 10.0749 17.6031 9.96678 17.2441 9.77211L16.6125 10.4037C17.1446 10.7411 17.7762 10.9401 18.4553 10.9401C19.3732 10.9401 20.2534 10.5755 20.9025 9.92648C21.5515 9.27746 21.9161 8.39719 21.9161 7.47934H22.6224C22.6304 7.47934 22.6352 7.47042 22.6307 7.46378L21.4835 5.74895ZM15.8597 7.47934C15.8597 6.79095 16.1332 6.13075 16.62 5.64398C17.1067 5.15721 17.7669 4.88375 18.4553 4.88375C18.8879 4.88375 19.3075 4.9919 19.6666 5.18657L20.2982 4.55498C19.7661 4.21755 19.1345 4.01855 18.4553 4.01855C17.5375 4.01855 16.6572 4.38317 16.0082 5.03219C15.3592 5.68122 14.9945 6.56148 14.9945 7.47934H14.2883C14.2803 7.47934 14.2755 7.48825 14.2799 7.4949L15.4271 9.20973L16.5743 7.4949" fill="#2387F5"/>
</svg>
