<svg width="52" height="60" viewBox="0 0 52 60" fill="none" xmlns="http://www.w3.org/2000/svg">
<path fill-rule="evenodd" clip-rule="evenodd" d="M43.4773 30.0648C42.7457 30.0648 42.031 30.161 41.3391 30.3469V30C41.3391 28.3208 39.973 26.9547 38.2937 26.9547H3.04536C1.36613 26.9547 0 28.3208 0 30V44.514C0 48.7374 1.97456 52.8473 5.18359 55.366V56.9547C5.18359 58.6339 6.54972 60 8.22894 60H33.1101C34.7894 60 36.1555 58.6339 36.1555 56.9547V55.366C38.4227 53.5866 40.0725 51.0126 40.8463 48.1656C41.6894 48.4508 42.5705 48.5961 43.4773 48.5961C48.0148 48.5961 51.7063 44.9046 51.7063 40.3672V38.2937C51.7063 33.7563 48.0148 30.0648 43.4773 30.0648V30.0648ZM41.3391 38.2937C41.3391 37.1147 42.2983 36.1555 43.4773 36.1555C44.6563 36.1555 45.6156 37.1147 45.6156 38.2937V40.3672C45.6156 41.5462 44.6563 42.5054 43.4773 42.5054C42.2983 42.5054 41.3391 41.5462 41.3391 40.3672V38.2937V38.2937ZM33.1102 58.0562H8.22894C7.62156 58.0562 7.12743 57.562 7.12743 56.9547V55.8531H34.2117V56.9547C34.2117 57.562 33.7175 58.0562 33.1102 58.0562V58.0562ZM39.3952 44.514C39.3952 48.1915 37.6651 51.7613 34.8613 53.9093H6.4778C3.674 51.7612 1.94384 48.1915 1.94384 44.514V30C1.94384 29.3926 2.43797 28.8985 3.04536 28.8985H38.2937C38.9011 28.8985 39.3952 29.3926 39.3952 30V38.2937V40.3672V44.514V44.514ZM49.7624 40.3672C49.7624 43.8328 46.9429 46.6523 43.4773 46.6523C42.6978 46.6523 41.944 46.5112 41.2289 46.2363C41.3009 45.6667 41.3391 45.0916 41.3391 44.514V43.8426C41.9614 44.2269 42.6938 44.4493 43.4773 44.4493C45.7282 44.4493 47.5594 42.618 47.5594 40.3672V38.2937C47.5594 36.0429 45.7282 34.2117 43.4773 34.2117C42.6938 34.2117 41.9614 34.434 41.3391 34.8183V32.383C42.0213 32.1355 42.7378 32.0086 43.4773 32.0086C46.9429 32.0086 49.7624 34.8281 49.7624 38.2937V40.3672V40.3672Z" fill="black"/>
<path fill-rule="evenodd" clip-rule="evenodd" d="M20.0131 19.2635C18.9487 20.2387 17.6242 21.4523 17.6242 23.7797C17.6242 24.3165 18.0592 24.7516 18.5961 24.7516C19.133 24.7516 19.5681 24.3165 19.5681 23.7797C19.5681 22.3076 20.3439 21.5968 21.3261 20.6968C22.3904 19.7216 23.7149 18.508 23.7149 16.1806C23.7149 13.852 22.3905 12.6377 21.3263 11.6619C20.3439 10.7614 19.5681 10.0498 19.5681 8.57624C19.5681 7.10255 20.344 6.3911 21.3263 5.49032C22.3905 4.51477 23.7149 3.30052 23.7149 0.971922C23.7149 0.435162 23.2799 0 22.743 0C22.2061 0 21.7711 0.435162 21.7711 0.971922C21.7711 2.44549 20.9952 3.15693 20.0128 4.05771C18.9486 5.03339 17.6242 6.24765 17.6242 8.57624C17.6242 10.9048 18.9486 12.1191 20.0128 13.0948C20.9951 13.9956 21.7711 14.707 21.7711 16.1807C21.7711 17.6527 20.9952 18.3636 20.0131 19.2635V19.2635Z" fill="black"/>
<path fill-rule="evenodd" clip-rule="evenodd" d="M26.2333 19.2635C25.169 20.2387 23.8445 21.4523 23.8445 23.7797C23.8445 24.3164 24.2795 24.7516 24.8164 24.7516C25.3533 24.7516 25.7883 24.3164 25.7883 23.7797C25.7883 22.3075 26.5642 21.5967 27.5463 20.6967C28.6107 19.7217 29.9352 18.508 29.9352 16.1806C29.9352 13.852 28.6108 12.6377 27.5466 11.6619C26.5642 10.7614 25.7883 10.0498 25.7883 8.57623C25.7883 8.03947 25.3533 7.60431 24.8164 7.60431C24.2795 7.60431 23.8445 8.03947 23.8445 8.57623C23.8445 10.9048 25.1689 12.1191 26.2331 13.0948C27.2154 13.9955 27.9914 14.707 27.9914 16.1807C27.9914 17.6527 27.2155 18.3636 26.2333 19.2635V19.2635Z" fill="black"/>
<path fill-rule="evenodd" clip-rule="evenodd" d="M13.7927 19.2635C12.7284 20.2387 11.4039 21.4523 11.4039 23.7797C11.4039 24.3164 11.8389 24.7516 12.3758 24.7516C12.9127 24.7516 13.3477 24.3164 13.3477 23.7797C13.3477 22.3075 14.1236 21.5967 15.1057 20.6967C16.17 19.7217 17.4946 18.508 17.4946 16.1806C17.4946 13.852 16.1702 12.6377 15.106 11.6619C14.1236 10.7614 13.3477 10.0498 13.3477 8.57623C13.3477 8.03947 12.9127 7.60431 12.3758 7.60431C11.8389 7.60431 11.4039 8.03947 11.4039 8.57623C11.4039 10.9048 12.7283 12.1191 13.7925 13.0948C14.7748 13.9955 15.5507 14.707 15.5507 16.1807C15.5507 17.6527 14.7749 18.3636 13.7927 19.2635V19.2635Z" fill="black"/>
</svg>
