<svg width="512" height="512" viewBox="0 0 512 512" fill="none" xmlns="http://www.w3.org/2000/svg">
<rect width="512" height="512" transform="matrix(-1 0 0 1 512 0)" fill="none"/>
<path d="M209.98 260.873C208.78 260.542 207.667 259.952 206.72 259.144C205.772 258.337 205.013 257.331 204.497 256.199C203.98 255.066 203.718 253.834 203.728 252.59C203.739 251.345 204.023 250.118 204.559 248.994L164.05 145.018L182.176 141.231L216.501 245.17C218.328 246.196 219.716 247.857 220.4 249.838C221.085 251.819 221.019 253.982 220.215 255.918C219.412 257.853 217.926 259.427 216.039 260.34C214.153 261.253 211.997 261.443 209.98 260.873V260.873Z" fill="#FFB8B8"/>
<path d="M187.947 134.076L193.179 170.84L199.893 192.393L180.819 199.648L171.851 182.667L156.333 135.415C155.162 131.851 155.386 127.975 156.959 124.57C158.533 121.165 161.338 118.482 164.811 117.063V117.063C168.413 115.591 172.451 115.594 176.051 117.072C179.651 118.551 182.526 121.385 184.054 124.964L187.947 134.076Z" fill="#2F2E41"/>
<path d="M106.016 460.183L93.6894 460.182L87.8252 412.634L106.019 412.635L106.016 460.183Z" fill="#FFB7B7"/>
<path d="M109.16 472.131L69.4121 472.13V471.627C69.4124 467.524 71.0425 463.589 73.9438 460.688C76.8451 457.787 80.78 456.156 84.8831 456.156H84.8841L109.161 456.157L109.16 472.131Z" fill="#2F2E41"/>
<path d="M207.803 460.183L195.476 460.182L189.612 412.634L207.805 412.635L207.803 460.183Z" fill="#FFB7B7"/>
<path d="M210.95 472.131L171.203 472.13V471.627C171.203 467.524 172.833 463.589 175.734 460.688C178.636 457.787 182.57 456.156 186.674 456.156H186.675L210.951 456.157L210.95 472.131Z" fill="#2F2E41"/>
<path d="M159.867 96.1294C174.627 96.1294 186.593 84.1637 186.593 69.4031C186.593 54.6425 174.627 42.6768 159.867 42.6768C145.106 42.6768 133.141 54.6425 133.141 69.4031C133.141 84.1637 145.106 96.1294 159.867 96.1294Z" fill="#FFB8B8"/>
<path d="M156.413 106.979L174.96 109.099C179.47 115.495 182.395 122.873 183.492 130.622C184.589 138.371 183.828 146.27 181.271 153.667L167.276 194.153C167.276 194.153 186.704 233.099 186.704 269.26C186.704 305.42 223.702 434.493 223.702 434.493L171.623 439.925L148.899 302.426L117.585 439.371L81.8364 433.552L101.526 254.001L114.537 194.903L115.091 166.083C115.091 166.083 109.559 144.458 123.404 130.612L140.309 107.057L156.413 106.979Z" fill="#2F2E41"/>
<path d="M128.716 59.858H167.989V42.7388C159.369 39.3142 150.934 36.4017 145.835 42.7388C141.295 42.7388 136.94 44.5424 133.73 47.7529C130.52 50.9634 128.716 55.3177 128.716 59.858V59.858Z" fill="#2F2E41"/>
<path d="M170.162 39.7197C193.641 39.7197 200.212 69.149 200.212 85.7516C200.212 95.0107 196.025 98.3223 189.445 99.4428L187.121 87.0493L181.679 99.976C179.83 99.9853 177.889 99.9495 175.876 99.9121L174.03 96.1123L169.915 99.844C153.434 99.8685 140.113 102.271 140.113 85.7515C140.113 69.149 145.876 39.7197 170.162 39.7197Z" fill="#2F2E41"/>
<path opacity="0.2" d="M123.61 199.301L134.545 157.59L137.292 138.467L125.806 154.895L123.61 199.301Z" fill="black"/>
<path d="M84.4678 249.869C84.1271 248.548 84.0802 247.169 84.3303 245.828C84.5803 244.487 85.1213 243.218 85.9151 242.109C86.709 241 87.7364 240.078 88.9249 239.409C90.1135 238.74 91.4342 238.339 92.7942 238.236L128.702 194L136.211 138.846L149.702 154L146.202 198.5L102.945 247.494C102.968 249.79 102.147 252.015 100.638 253.746C99.1302 255.478 97.0391 256.596 94.7616 256.888C92.484 257.181 90.1781 256.628 88.2809 255.335C86.3837 254.041 85.027 252.096 84.4678 249.869Z" fill="#FFB8B8"/>
<path d="M167.795 137.766L152.841 175.605L147.546 199.766L125.453 196.332L126.122 175.301L136.97 121.898C137.788 117.87 140.103 114.302 143.447 111.913C146.792 109.524 150.917 108.491 154.993 109.023V109.023C159.221 109.575 163.063 111.767 165.689 115.127C168.315 118.486 169.515 122.744 169.03 126.98L167.795 137.766Z" fill="#2F2E41"/>
<rect width="3.44197" height="71.069" transform="matrix(-0.926922 0.375254 0.375254 0.926922 223.544 251.955)" fill="#C4C4C4"/>
<rect width="7.7451" height="6.11239" transform="matrix(-0.926922 0.375254 0.375254 0.926922 317.958 456.119)" fill="#2F2E41"/>
<rect width="7.7451" height="6.11239" transform="matrix(-0.926922 0.375254 0.375254 0.926922 353.438 441.901)" fill="#2F2E41"/>
<rect width="74.3369" height="164" rx="15" transform="matrix(-0.926909 0.375286 0.375286 0.926909 304.188 284.884)" fill="#2361AA"/>
<path d="M331.258 450.822L270.26 298.539" stroke="black"/>
<circle r="6.88881" transform="matrix(-1 0 0 1 317.667 466.294)" fill="#2F2E41"/>
<circle r="6.88881" transform="matrix(-1 0 0 1 353.147 452.076)" fill="#2F2E41"/>
<mask id="mask0" mask-type="alpha" maskUnits="userSpaceOnUse" x="235" y="284" width="131" height="181">
<rect width="74.3369" height="164" rx="15" transform="matrix(-0.926909 0.375286 0.375286 0.926909 304.188 284.884)" fill="#2361AA"/>
</mask>
<g mask="url(#mask0)">
<path opacity="0.2" d="M328.803 445.634C357.394 434.267 358.428 430.822 359.116 422.21L368.417 433.578L328.803 473.88L276.445 495.237L241.998 452.523L238.898 311.981C239.472 313.36 240.896 317.769 241.998 324.383C243.376 332.65 265.077 372.952 270.589 386.042C276.1 399.132 290.912 440.467 294.357 447.357C297.802 454.246 300.213 457.002 328.803 445.634Z" fill="black"/>
</g>
<circle r="4.97503" transform="matrix(-1 0 0 1 218.727 253.36)" fill="#C4C4C4"/>
<g opacity="0.5">
<path d="M364.276 78.2364C363.338 79.5866 361.993 80.6017 360.438 81.1337C358.882 81.6656 357.197 81.6866 355.629 81.1934C354.061 80.7002 352.691 79.7188 351.72 78.3923C350.749 77.0658 350.227 75.4637 350.231 73.8197C350.227 72.1757 350.749 70.5736 351.72 69.2471C352.691 67.9206 354.061 66.9391 355.629 66.446C357.197 65.9528 358.882 65.9737 360.438 66.5057C361.993 67.0377 363.338 68.0528 364.276 69.403H367.898C367.898 62.4689 370.106 56.153 374.081 50.8972L368.163 44.9788C365.689 45.4205 363.172 44.7138 361.273 42.903C358.314 39.8555 358.314 34.953 361.273 31.8613C364.32 28.9022 369.223 28.9022 372.314 31.8613C374.125 33.7605 374.832 36.278 374.39 38.7513L380.309 44.6697C384.372 41.6222 389.142 39.5905 394.398 38.8397V32.6563C393.048 31.7185 392.032 30.3737 391.5 28.8181C390.968 27.2626 390.948 25.5778 391.441 24.0095C391.934 22.4412 392.915 21.0716 394.242 20.1005C395.568 19.1294 397.17 18.6076 398.814 18.6113C400.458 18.6076 402.06 19.1294 403.387 20.1005C404.713 21.0716 405.695 22.4412 406.188 24.0095C406.681 25.5778 406.66 27.2626 406.128 28.8181C405.596 30.3737 404.581 31.7185 403.231 32.6563V38.8397C407.206 39.4138 410.916 40.6947 414.273 42.638L419.175 35.6155C418.336 33.3188 418.557 30.6688 420.059 28.5488C420.641 27.7156 421.382 27.0054 422.239 26.4589C423.096 25.9124 424.052 25.5403 425.053 25.3639C426.054 25.1875 427.08 25.2102 428.072 25.4309C429.064 25.6515 430.003 26.0657 430.835 26.6497C434.324 29.0788 435.208 33.893 432.734 37.3822C431.233 39.5463 428.848 40.6947 426.419 40.6947L421.207 48.1147C423.106 50.0138 424.608 52.1339 425.889 54.4747C427.281 53.9307 428.8 53.7997 430.265 54.0974C431.73 54.3951 433.078 55.1088 434.148 56.153C437.107 59.2447 437.107 64.103 434.148 67.1947C432.867 68.3872 431.321 69.0939 429.731 69.403C429.731 71.788 429.422 74.0847 428.936 76.293L434.722 77.8389C436.577 76.293 439.139 75.6305 441.7 76.293C443.68 76.8319 445.364 78.135 446.383 79.9158C447.402 81.6966 447.672 83.8092 447.133 85.7889C446.594 87.7685 445.291 89.453 443.51 90.4717C441.729 91.4905 439.617 91.7602 437.637 91.2214C435.119 90.5147 433.22 88.6597 432.425 86.363L425.756 84.5522C423.769 88.0414 421.119 91.133 418.027 93.6947L422.885 102.528C425.314 102.881 427.523 104.251 428.804 106.591C429.285 107.485 429.586 108.464 429.689 109.473C429.792 110.483 429.695 111.503 429.404 112.475C429.112 113.447 428.633 114.352 427.992 115.138C427.351 115.925 426.561 116.577 425.668 117.059C424.775 117.54 423.795 117.841 422.786 117.944C421.776 118.047 420.757 117.95 419.785 117.659C418.813 117.368 417.907 116.888 417.121 116.247C416.334 115.606 415.682 114.816 415.2 113.923C413.964 111.626 414.008 108.976 415.112 106.812L410.386 98.1114C406.809 99.5247 402.922 100.32 398.814 100.32H398.019C398.594 101.468 398.814 102.793 398.814 104.206C398.461 108.491 394.751 111.671 390.511 111.361C386.271 111.052 383.047 107.298 383.356 103.058C383.533 100.85 384.637 98.9063 386.227 97.6255C384.151 96.698 382.164 95.5055 380.309 94.1364L369.974 104.471C370.415 106.945 369.709 109.462 367.898 111.361C364.806 114.321 359.948 114.321 356.856 111.361C353.764 108.402 353.897 103.411 356.856 100.32C358.755 98.5089 361.273 97.8022 363.746 98.2439L374.081 87.9089C371.917 85.038 370.239 81.7697 369.179 78.2364H364.276V78.2364ZM405.439 69.403C409.105 69.403 412.064 66.4439 412.064 62.778C412.064 59.1122 409.105 56.153 405.439 56.153C401.774 56.153 398.814 59.1122 398.814 62.778C398.814 66.4439 401.774 69.403 405.439 69.403V69.403ZM389.981 82.653C392.41 82.653 394.398 80.6655 394.398 78.2364C394.398 75.8072 392.41 73.8197 389.981 73.8197C387.552 73.8197 385.564 75.8072 385.564 78.2364C385.564 80.6655 387.552 82.653 389.981 82.653Z" fill="#1FE90E"/>
</g>
<g opacity="0.2" clip-path="url(#clip0)">
<path d="M439.039 189.751C438.939 190.494 439.08 191.25 439.44 191.908C439.8 192.565 440.361 193.091 441.041 193.407C441.721 193.724 442.484 193.814 443.219 193.666C443.954 193.518 444.623 193.139 445.127 192.585C445.634 192.032 445.952 191.332 446.033 190.586C446.114 189.841 445.954 189.089 445.578 188.441C445.202 187.792 444.628 187.281 443.94 186.981C443.253 186.682 442.487 186.61 441.756 186.776L440.536 185.662C442.67 183.327 443.869 180.52 444.147 177.527L447.961 177.355C448.659 178.265 449.724 178.801 450.92 178.776C452.855 178.66 454.363 177.009 454.318 175.057C454.202 173.123 452.551 171.614 450.599 171.66C449.405 171.742 448.392 172.373 447.78 173.342L443.966 173.514C443.535 171.238 442.554 169.086 441.015 167.216L442.917 165.134C443.66 165.233 444.416 165.093 445.074 164.732C445.731 164.372 446.257 163.811 446.573 163.131C446.89 162.451 446.981 161.688 446.833 160.953C446.685 160.218 446.306 159.549 445.751 159.045C445.198 158.538 444.498 158.22 443.753 158.139C443.007 158.058 442.255 158.218 441.607 158.594C440.958 158.971 440.447 159.544 440.147 160.232C439.848 160.919 439.776 161.685 439.942 162.416L438.04 164.498C436.525 163.469 434.881 162.759 433.153 162.38L433.662 158.507C434.651 157.992 435.392 157.031 435.539 155.856C435.599 155.396 435.568 154.929 435.448 154.481C435.327 154.033 435.12 153.614 434.837 153.246C434.554 152.879 434.201 152.571 433.799 152.34C433.397 152.109 432.954 151.96 432.494 151.9C430.571 151.645 428.793 152.995 428.552 154.931C428.392 156.121 428.842 157.242 429.66 157.989L429.133 162.092C427.909 162.147 426.751 162.399 425.599 162.793C425.298 162.182 424.826 161.67 424.241 161.32C423.656 160.969 422.983 160.795 422.301 160.817C420.354 160.948 418.859 162.584 418.904 164.536C418.969 165.332 419.272 166.045 419.712 166.639C418.979 167.442 418.376 168.31 417.86 169.204L415.436 167.944C415.287 166.853 414.628 165.842 413.562 165.277C412.729 164.849 411.761 164.77 410.87 165.056C409.979 165.342 409.238 165.971 408.811 166.803C408.383 167.636 408.304 168.604 408.59 169.495C408.876 170.386 409.505 171.127 410.337 171.554C411.403 172.091 412.613 172.05 413.587 171.521L416.39 172.963C415.986 174.75 415.927 176.606 416.181 178.42L411.827 179.9C410.9 179.272 409.735 179.054 408.583 179.448C408.147 179.601 407.744 179.838 407.399 180.146C407.054 180.455 406.772 180.828 406.571 181.245C406.37 181.662 406.254 182.114 406.227 182.576C406.201 183.038 406.266 183.501 406.419 183.938C406.572 184.375 406.809 184.778 407.117 185.123C407.426 185.468 407.799 185.749 408.216 185.95C408.633 186.151 409.085 186.268 409.547 186.294C410.009 186.32 410.472 186.255 410.909 186.102C412.032 185.709 412.833 184.803 413.127 183.735L417.395 182.258C418.165 183.835 419.229 185.299 420.613 186.562L420.88 186.807C420.334 187.017 419.852 187.395 419.417 187.871C418.218 189.423 418.489 191.635 420.012 192.835C421.535 194.036 423.776 193.763 424.976 192.24C425.596 191.442 425.822 190.448 425.681 189.528C426.665 189.854 427.701 190.064 428.747 190.173L429.048 196.834C428.139 197.531 427.602 198.596 427.628 199.793C427.758 201.74 429.395 203.235 431.346 203.19C433.298 203.144 434.789 201.423 434.743 199.471C434.661 198.277 434.03 197.264 433.062 196.652L432.761 189.992C434.373 189.691 435.943 189.107 437.387 188.243L439.039 189.751V189.751ZM427.893 174.112C426.659 172.984 426.572 171.077 427.7 169.843C428.828 168.608 430.735 168.522 431.97 169.65C433.204 170.777 433.29 172.684 432.163 173.919C431.035 175.154 429.128 175.24 427.893 174.112V174.112ZM429.023 183.33C428.205 182.583 428.147 181.302 428.894 180.484C429.642 179.666 430.922 179.608 431.74 180.355C432.559 181.103 432.616 182.383 431.869 183.202C431.122 184.02 429.841 184.078 429.023 183.33Z" fill="#1FE90E"/>
</g>
<g opacity="0.4" clip-path="url(#clip1)">
<path d="M329.654 170.389C329.516 171.414 329.71 172.456 330.207 173.364C330.704 174.271 331.477 174.995 332.415 175.431C333.352 175.868 334.405 175.993 335.419 175.789C336.432 175.585 337.355 175.062 338.05 174.297C338.75 173.535 339.187 172.57 339.299 171.542C339.411 170.514 339.191 169.477 338.672 168.582C338.153 167.688 337.361 166.983 336.413 166.57C335.465 166.157 334.41 166.058 333.401 166.287L331.719 164.75C334.661 161.53 336.315 157.66 336.699 153.532L341.959 153.295C342.92 154.549 344.389 155.289 346.039 155.254C348.707 155.094 350.787 152.817 350.724 150.126C350.564 147.458 348.287 145.378 345.596 145.441C343.949 145.555 342.553 146.424 341.709 147.76L336.449 147.998C335.855 144.859 334.501 141.891 332.379 139.313L335.002 136.441C336.027 136.578 337.069 136.384 337.976 135.888C338.883 135.391 339.608 134.617 340.044 133.68C340.481 132.742 340.606 131.689 340.402 130.676C340.198 129.662 339.675 128.74 338.91 128.044C338.148 127.345 337.183 126.907 336.154 126.796C335.126 126.684 334.09 126.904 333.195 127.423C332.301 127.942 331.596 128.733 331.183 129.681C330.77 130.629 330.671 131.685 330.9 132.693L328.276 135.565C326.187 134.145 323.92 133.166 321.537 132.644L322.239 127.303C323.604 126.592 324.625 125.268 324.827 123.646C324.91 123.012 324.868 122.368 324.702 121.751C324.535 121.133 324.249 120.554 323.859 120.048C323.469 119.541 322.983 119.116 322.428 118.798C321.874 118.48 321.262 118.274 320.628 118.192C317.977 117.84 315.524 119.701 315.193 122.371C314.972 124.013 315.592 125.558 316.72 126.589L315.993 132.246C314.305 132.322 312.708 132.67 311.12 133.213C310.704 132.37 310.054 131.664 309.247 131.181C308.441 130.698 307.512 130.457 306.572 130.489C303.886 130.669 301.825 132.925 301.888 135.617C301.976 136.714 302.395 137.698 303.002 138.516C301.99 139.624 301.159 140.822 300.448 142.054L297.105 140.317C296.899 138.812 295.991 137.417 294.52 136.638C293.372 136.048 292.036 135.939 290.808 136.334C289.579 136.729 288.558 137.595 287.968 138.743C287.378 139.891 287.269 141.227 287.664 142.455C288.058 143.684 288.925 144.706 290.073 145.295C291.542 146.035 293.211 145.979 294.555 145.25L298.421 147.239C297.863 149.702 297.782 152.262 298.131 154.764L292.127 156.805C290.849 155.939 289.243 155.638 287.655 156.181C287.052 156.392 286.497 156.719 286.021 157.144C285.545 157.569 285.157 158.084 284.88 158.659C284.603 159.234 284.442 159.858 284.406 160.495C284.37 161.132 284.459 161.771 284.67 162.373C284.881 162.976 285.208 163.531 285.633 164.007C286.058 164.483 286.573 164.871 287.148 165.148C287.723 165.425 288.347 165.586 288.984 165.622C289.621 165.658 290.259 165.568 290.862 165.358C292.411 164.816 293.514 163.566 293.92 162.093L299.806 160.057C300.868 162.231 302.336 164.249 304.243 165.992L304.613 166.329C303.859 166.619 303.194 167.141 302.594 167.797C300.941 169.937 301.315 172.988 303.415 174.643C305.515 176.298 308.606 175.923 310.261 173.822C311.116 172.722 311.428 171.351 311.233 170.081C312.59 170.531 314.019 170.821 315.462 170.972L315.877 180.157C314.622 181.118 313.882 182.587 313.917 184.237C314.098 186.923 316.354 188.984 319.046 188.922C321.737 188.859 323.793 186.485 323.73 183.794C323.617 182.147 322.747 180.751 321.411 179.906L320.996 170.722C323.219 170.307 325.385 169.501 327.377 168.309L329.654 170.389V170.389ZM314.284 148.823C312.581 147.267 312.462 144.637 314.018 142.935C315.573 141.232 318.203 141.113 319.905 142.669C321.608 144.224 321.727 146.854 320.171 148.556C318.616 150.259 315.986 150.378 314.284 148.823V148.823ZM315.841 161.535C314.713 160.504 314.633 158.738 315.664 157.61C316.695 156.482 318.461 156.402 319.589 157.432C320.717 158.463 320.797 160.229 319.767 161.357C318.736 162.486 316.97 162.565 315.841 161.535Z" fill="#1FE90E"/>
</g>
<rect width="10.8931" height="25.1379" rx="2" transform="matrix(-0.93183 0.362895 0.362895 0.93183 301.787 305.434)" fill="white"/>
<defs>
<clipPath id="clip0">
<rect width="48.3518" height="48.3518" fill="white" transform="translate(428.581 141.995) rotate(42.4125)"/>
</clipPath>
<clipPath id="clip1">
<rect width="66.6793" height="66.6793" fill="white" transform="translate(315.232 104.532) rotate(42.4125)"/>
</clipPath>
</defs>
</svg>
