<svg width="2508" height="749" viewBox="0 0 2508 749" fill="none" xmlns="http://www.w3.org/2000/svg">
<g clip-path="url(#clip0)" filter="url(#filter0_d)">
<path d="M2488.08 653.496C2488.08 662.821 2486.24 672.055 2482.67 680.67C2479.1 689.285 2473.86 697.111 2467.26 703.702C2460.66 710.292 2452.83 715.518 2444.21 719.08C2435.59 722.642 2426.35 724.47 2417.02 724.46H91.6451C72.7978 724.48 54.7144 717.015 41.3717 703.707C28.029 690.399 20.5197 672.338 20.4951 653.496V87.5785C20.5197 68.7277 28.026 50.6571 41.3661 37.3345C54.7061 24.0119 72.7893 16.5264 91.6451 16.5215H2417C2426.33 16.5215 2435.58 18.3596 2444.2 21.9307C2452.82 25.5019 2460.65 30.7362 2467.25 37.3347C2473.85 43.9332 2479.09 51.7666 2482.66 60.3875C2486.22 69.0085 2488.06 78.248 2488.06 87.5785L2488.08 653.496Z" fill="white"/>
<path d="M2417.02 740.97H91.6447C68.4271 740.965 46.1596 731.752 29.7283 715.353C13.2971 698.954 4.04418 676.708 4 653.496L4 87.5972C4.03435 64.3742 13.2811 42.113 29.7119 25.697C46.1426 9.28105 68.4156 0.0508511 91.6447 0.03125L2417 0.03125C2440.23 0.0606316 2462.49 9.29397 2478.92 25.7078C2495.35 42.1217 2504.6 64.3772 2504.65 87.5972V653.496C2504.68 701.745 2465.3 740.97 2417.02 740.97V740.97Z" fill="#A6A6A6"/>
<path d="M2488.08 653.496C2488.08 662.821 2486.24 672.055 2482.67 680.67C2479.1 689.285 2473.86 697.111 2467.26 703.702C2460.66 710.292 2452.83 715.518 2444.21 719.08C2435.59 722.642 2426.35 724.47 2417.02 724.46H91.6451C72.7978 724.48 54.7144 717.015 41.3717 703.707C28.029 690.399 20.5197 672.338 20.4951 653.496V87.5785C20.5197 68.7277 28.026 50.6571 41.3661 37.3345C54.7061 24.0119 72.7893 16.5264 91.6451 16.5215H2417C2426.33 16.5215 2435.58 18.3596 2444.2 21.9307C2452.82 25.5019 2460.65 30.7362 2467.25 37.3347C2473.85 43.9332 2479.09 51.7666 2482.66 60.3875C2486.22 69.0085 2488.06 78.248 2488.06 87.5785L2488.08 653.496Z" fill="white"/>
<path d="M562.376 366.601C561.839 306.883 611.286 277.83 613.547 276.478C585.543 235.659 542.137 230.082 526.884 229.637C490.429 225.802 455.067 251.446 436.497 251.446C417.556 251.446 388.958 230.008 358.137 230.638C318.476 231.249 281.372 254.206 261.022 289.855C219.025 362.543 250.347 469.36 290.583 528.114C310.71 556.907 334.229 589.017 365.013 587.887C395.13 586.664 406.38 568.71 442.724 568.71C478.734 568.71 489.299 587.887 520.694 587.164C553.017 586.664 573.366 558.26 592.789 529.226C616.049 496.263 625.39 463.764 625.76 462.097C625.019 461.837 563.006 438.158 562.376 366.601V366.601ZM503.069 190.987C519.267 170.735 530.35 143.183 527.274 115.224C503.829 116.261 474.509 131.436 457.625 151.243C442.687 168.697 429.343 197.305 432.79 224.209C459.126 226.173 486.166 210.924 503.069 190.987V190.987Z" fill="black"/>
<path d="M998.598 583.754H956.509L933.453 511.326H853.315L831.352 583.754H790.375L869.791 337.176H918.83L998.598 583.754V583.754ZM926.503 480.94L905.653 416.553C903.448 409.975 899.296 394.485 893.217 370.102H892.476C890.029 380.589 886.119 396.079 880.763 416.553L860.265 480.94H926.503ZM1202.43 492.668C1202.43 522.907 1194.22 546.809 1177.78 564.355C1163.06 579.975 1144.77 587.775 1122.96 587.775C1099.4 587.775 1082.46 579.382 1072.18 562.558V655.849H1032.66V464.394C1032.66 445.402 1032.16 425.928 1031.2 405.954H1065.95L1068.15 434.136H1068.9C1082.07 412.903 1102.07 402.286 1128.91 402.286C1149.89 402.286 1167.4 410.568 1181.41 427.151C1195.41 443.771 1202.43 465.598 1202.43 492.668ZM1162.17 494.113C1162.17 476.808 1158.28 462.541 1150.46 451.294C1141.92 439.602 1130.45 433.747 1116.06 433.747C1106.31 433.747 1097.46 437.008 1089.54 443.438C1081.61 449.923 1076.42 458.39 1073.99 468.877C1072.91 472.799 1072.29 476.836 1072.16 480.902V510.567C1072.16 523.481 1076.12 534.394 1084.06 543.325C1091.99 552.219 1102.29 556.684 1114.97 556.684C1129.85 556.684 1141.44 550.922 1149.72 539.49C1158.02 528.021 1162.17 512.901 1162.17 494.113V494.113ZM1406.98 492.668C1406.98 522.907 1398.77 546.809 1382.33 564.355C1367.6 579.975 1349.33 587.775 1327.49 587.775C1303.94 587.775 1287 579.382 1276.71 562.558V655.849H1237.2V464.394C1237.2 445.402 1236.7 425.928 1235.73 405.954H1270.48L1272.69 434.136H1273.43C1286.59 412.903 1306.59 402.286 1333.44 402.286C1354.4 402.286 1371.92 410.568 1385.97 427.151C1399.94 443.771 1406.98 465.598 1406.98 492.668V492.668ZM1366.71 494.113C1366.71 476.808 1362.8 462.541 1354.98 451.294C1346.43 439.602 1335 433.747 1320.62 433.747C1310.87 433.747 1302.01 437.008 1294.06 443.438C1286.13 449.923 1280.96 458.39 1278.53 468.877C1277.32 473.769 1276.67 477.753 1276.67 480.902V510.567C1276.67 523.481 1280.66 534.394 1288.55 543.325C1296.49 552.2 1306.79 556.684 1319.51 556.684C1334.41 556.684 1345.99 550.922 1354.26 539.49C1362.56 528.021 1366.71 512.901 1366.71 494.113V494.113ZM1635.69 514.587C1635.69 535.58 1628.35 552.645 1613.76 565.819C1597.71 580.197 1575.3 587.405 1546.58 587.405C1520.04 587.405 1498.76 582.291 1482.71 572.044L1491.85 539.119C1509.18 549.384 1528.21 554.498 1548.93 554.498C1563.83 554.498 1575.42 551.126 1583.68 544.437C1591.97 537.73 1596.15 528.762 1596.15 517.57C1596.15 507.547 1592.69 499.153 1585.89 492.316C1579.05 485.498 1567.74 479.142 1551.86 473.306C1508.68 457.204 1487.07 433.655 1487.07 402.675C1487.07 382.442 1494.7 365.877 1509.94 352.926C1525.17 339.993 1545.37 333.526 1570.5 333.526C1592.95 333.526 1611.65 337.436 1626.49 345.236L1616.58 377.439C1602.6 369.879 1586.83 366.1 1569.19 366.1C1555.25 366.1 1544.32 369.527 1536.5 376.346C1529.92 382.442 1526.58 389.872 1526.58 398.691C1526.58 408.419 1530.38 416.497 1537.94 422.834C1544.5 428.67 1556.47 435.026 1573.78 441.844C1595.02 450.404 1610.63 460.373 1620.62 471.823C1630.68 483.274 1635.69 497.56 1635.69 514.587ZM1766.66 435.6H1723.11V521.925C1723.11 543.881 1730.78 554.831 1746.16 554.831C1753.23 554.831 1759.08 554.238 1763.72 552.997L1764.81 582.995C1757.02 585.904 1746.78 587.368 1734.08 587.368C1718.48 587.368 1706.28 582.606 1697.48 573.082C1688.71 563.558 1684.3 547.605 1684.3 525.149V435.526H1658.35V405.88H1684.3V373.326L1723.11 361.616V405.88H1766.66V435.6V435.6ZM1962.78 493.391C1962.78 520.72 1954.96 543.158 1939.36 560.705C1923.03 578.77 1901.31 587.775 1874.23 587.775C1848.1 587.775 1827.32 579.122 1811.83 561.835C1796.33 544.511 1788.59 522.684 1788.59 496.355C1788.59 468.803 1796.59 446.236 1812.55 428.689C1828.55 411.124 1850.08 402.341 1877.16 402.341C1903.25 402.341 1924.22 411.013 1940.08 428.318C1955.24 445.105 1962.78 466.784 1962.78 493.391ZM1921.82 494.299C1921.82 478.012 1918.3 464.041 1911.24 452.35C1902.96 438.231 1891.1 431.172 1875.73 431.172C1859.9 431.172 1847.76 438.231 1839.5 452.35C1832.42 464.041 1828.9 478.253 1828.9 495.04C1828.9 511.345 1832.42 525.352 1839.5 537.007C1848.04 551.126 1859.96 558.185 1875.4 558.185C1890.5 558.185 1902.35 550.977 1910.91 536.655C1918.17 524.685 1921.82 510.622 1921.82 494.299ZM2091.28 440.696C2087.17 439.954 2083 439.588 2078.82 439.602C2064.92 439.602 2054.17 444.827 2046.61 455.352C2040.05 464.616 2036.75 476.326 2036.75 490.463V583.754H1997.24V461.948C1997.27 443.283 1996.89 424.62 1996.09 405.973H2030.5L2031.95 439.991H2033.04C2037.23 428.3 2043.79 418.869 2052.8 411.81C2061.04 405.641 2071.06 402.3 2081.36 402.286C2085.01 402.286 2088.31 402.545 2091.24 403.008L2091.28 440.696V440.696ZM2267.99 486.443C2268.09 492.448 2267.61 498.448 2266.55 504.36H2148.01C2148.45 521.925 2154.2 535.376 2165.21 544.641C2175.2 552.904 2188.11 557.055 2203.98 557.055C2221.53 557.055 2237.54 554.276 2251.94 548.661L2258.13 576.065C2241.3 583.402 2221.44 587.053 2198.51 587.053C2170.93 587.053 2149.29 578.937 2133.53 562.743C2117.82 546.531 2109.94 524.741 2109.94 497.448C2109.94 470.656 2117.26 448.329 2131.92 430.523C2147.27 411.513 2168 402.008 2194.1 402.008C2219.73 402.008 2239.14 411.513 2252.31 430.523C2262.75 445.587 2267.99 464.264 2267.99 486.443V486.443ZM2230.31 476.196C2230.59 464.468 2228 454.37 2222.64 445.828C2215.8 434.822 2205.28 429.338 2191.17 429.338C2178.25 429.338 2167.73 434.692 2159.72 445.439C2153.14 453.98 2149.23 464.245 2148.03 476.159L2230.31 476.196Z" fill="black"/>
<path d="M841.917 250C830.926 250 821.419 249.463 813.505 248.555V129.342C824.573 127.633 835.758 126.791 846.958 126.822C892.272 126.822 913.141 149.112 913.141 185.447C913.141 227.358 888.491 250 841.917 250ZM848.552 142.109C842.436 142.109 837.228 142.479 832.909 143.368V233.992C835.245 234.362 839.73 234.529 846.031 234.529C875.722 234.529 892.624 217.631 892.624 185.984C892.624 157.765 877.334 142.109 848.552 142.109V142.109ZM978.175 250.908C952.636 250.908 936.085 231.842 936.085 205.958C936.085 178.98 952.988 159.748 979.62 159.748C1004.79 159.748 1021.71 177.906 1021.71 204.531C1021.71 231.842 1004.27 250.908 978.175 250.908ZM978.916 173.941C964.886 173.941 955.897 187.059 955.897 205.402C955.897 223.393 965.071 236.512 978.731 236.512C992.39 236.512 1001.56 222.485 1001.56 205.032C1001.56 187.244 992.575 173.941 978.916 173.941ZM1167.35 161.545L1140.01 248.926H1122.2L1110.87 210.979C1108.06 201.697 1105.71 192.279 1103.85 182.76H1103.48C1102.05 192.284 1099.35 201.826 1096.47 210.979L1084.43 248.926H1066.43L1040.71 161.545H1060.67L1070.56 203.086C1072.9 212.98 1074.86 222.319 1076.49 231.138H1076.87C1078.29 223.782 1080.63 214.592 1084.06 203.271L1096.47 161.564H1112.3L1124.18 202.382C1127.05 212.276 1129.39 221.985 1131.21 231.157H1131.72C1132.98 222.17 1134.97 212.628 1137.66 202.382L1148.27 161.564L1167.35 161.545V161.545ZM1267.98 248.926H1248.56V198.75C1248.56 183.298 1242.63 175.553 1230.93 175.553C1219.42 175.553 1211.51 185.447 1211.51 196.953V248.926H1192.09V186.521C1192.09 178.795 1191.9 170.513 1191.37 161.526H1208.45L1209.36 175.015H1209.9C1215.12 165.677 1225.73 159.748 1237.61 159.748C1255.95 159.748 1268 173.774 1268 196.601L1267.98 248.926V248.926ZM1321.54 248.926H1302.1V121.449H1321.54V248.926ZM1392.36 250.908C1366.84 250.908 1350.27 231.842 1350.27 205.958C1350.27 178.98 1367.17 159.748 1393.79 159.748C1418.97 159.748 1435.88 177.906 1435.88 204.531C1435.9 231.842 1418.44 250.908 1392.36 250.908ZM1393.08 173.941C1379.05 173.941 1370.06 187.059 1370.06 205.402C1370.06 223.393 1379.26 236.512 1392.88 236.512C1406.56 236.512 1415.71 222.485 1415.71 205.032C1415.73 187.244 1406.76 173.941 1393.08 173.941V173.941ZM1512.46 248.926L1511.05 238.865H1510.53C1504.6 246.962 1495.94 250.908 1484.97 250.908C1469.31 250.908 1458.19 239.939 1458.19 225.191C1458.19 203.623 1476.89 192.469 1509.27 192.469V190.857C1509.27 179.351 1503.17 173.589 1491.13 173.589C1482.51 173.589 1474.95 175.756 1468.29 180.074L1464.34 167.307C1472.42 162.268 1482.51 159.748 1494.35 159.748C1517.18 159.748 1528.71 171.791 1528.71 195.897V228.081C1528.71 236.901 1529.1 243.738 1529.97 248.944L1512.46 248.926V248.926ZM1509.79 205.402C1488.22 205.402 1477.39 210.627 1477.39 223.023C1477.39 232.194 1482.97 236.678 1490.72 236.678C1500.6 236.678 1509.79 229.137 1509.79 218.891V205.402V205.402ZM1623.03 248.926L1622.12 234.9H1621.58C1616 245.498 1606.63 250.908 1593.52 250.908C1572.45 250.908 1556.84 232.38 1556.84 206.31C1556.84 178.98 1573.02 159.729 1595.12 159.729C1606.81 159.729 1615.1 163.676 1619.77 171.606H1620.16V121.449H1639.6V225.376C1639.6 233.825 1639.8 241.737 1640.32 248.926H1623.03ZM1620.16 197.509C1620.16 185.28 1612.06 174.849 1599.69 174.849C1585.29 174.849 1576.49 187.615 1576.49 205.587C1576.49 223.208 1585.63 235.27 1599.31 235.27C1611.52 235.27 1620.16 224.653 1620.16 212.072V197.509ZM1762.86 250.908C1737.34 250.908 1720.79 231.842 1720.79 205.958C1720.79 178.98 1737.69 159.748 1764.31 159.748C1789.5 159.748 1806.4 177.906 1806.4 204.531C1806.42 231.842 1788.98 250.908 1762.86 250.908ZM1763.59 173.941C1749.57 173.941 1740.59 187.059 1740.59 205.402C1740.59 223.393 1749.76 236.512 1763.4 236.512C1777.08 236.512 1786.23 222.485 1786.23 205.032C1786.27 187.244 1777.28 173.941 1763.59 173.941ZM1910.85 248.926H1891.41V198.75C1891.41 183.298 1885.48 175.553 1873.79 175.553C1862.28 175.553 1854.38 185.447 1854.38 196.953V248.926H1834.94V186.521C1834.94 178.795 1834.75 170.513 1834.22 161.526H1851.3L1852.21 175.015H1852.75C1857.96 165.677 1868.58 159.729 1880.44 159.729C1898.79 159.729 1910.85 173.755 1910.85 196.582V248.926ZM2041.53 176.108H2020.16V218.539C2020.16 229.341 2023.91 234.733 2031.47 234.733C2034.9 234.733 2037.77 234.362 2040.09 233.825L2040.62 248.574C2036.86 250.019 2031.82 250.741 2025.56 250.741C2010.25 250.741 2001.09 242.292 2001.09 220.169V176.108H1988.34V161.545H2001.09V145.536L2020.16 139.774V161.526H2041.53V176.108V176.108ZM2144.36 248.926H2124.95V199.121C2124.95 183.483 2119.04 175.571 2107.33 175.571C2097.26 175.571 2087.88 182.408 2087.88 196.249V248.926H2068.48V121.449H2087.88V173.941H2088.27C2094.39 164.417 2103.25 159.729 2114.55 159.729C2133.05 159.729 2144.36 174.107 2144.36 196.953V248.926V248.926ZM2249.7 209.905H2191.41C2191.78 226.451 2202.74 235.789 2218.95 235.789C2227.57 235.789 2235.5 234.344 2242.51 231.657L2245.53 245.146C2237.26 248.74 2227.53 250.538 2216.21 250.538C2188.87 250.538 2172.69 233.269 2172.69 206.495C2172.69 179.703 2189.26 159.562 2214.02 159.562C2236.36 159.562 2250.37 176.108 2250.37 201.103C2250.49 204.053 2250.27 207.007 2249.7 209.905V209.905ZM2231.89 196.064C2231.89 182.575 2225.09 173.051 2212.67 173.051C2201.51 173.051 2192.69 182.76 2191.43 196.064H2231.89V196.064Z" fill="black"/>
</g>
<defs>
<filter id="filter0_d" x="0" y="0" width="2508" height="749" filterUnits="userSpaceOnUse" color-interpolation-filters="sRGB">
<feFlood flood-opacity="0" result="BackgroundImageFix"/>
<feColorMatrix in="SourceAlpha" type="matrix" values="0 0 0 0 0 0 0 0 0 0 0 0 0 0 0 0 0 0 127 0" result="hardAlpha"/>
<feOffset dy="4"/>
<feGaussianBlur stdDeviation="2"/>
<feComposite in2="hardAlpha" operator="out"/>
<feColorMatrix type="matrix" values="0 0 0 0 0 0 0 0 0 0 0 0 0 0 0 0 0 0 0.25 0"/>
<feBlend mode="normal" in2="BackgroundImageFix" result="effect1_dropShadow"/>
<feBlend mode="normal" in="SourceGraphic" in2="effect1_dropShadow" result="shape"/>
</filter>
<clipPath id="clip0">
<rect width="2500" height="741" fill="white" transform="translate(4)"/>
</clipPath>
</defs>
</svg>
