<svg width="24" height="24" viewBox="0 0 24 24" fill="none" xmlns="http://www.w3.org/2000/svg">
<path fill-rule="evenodd" clip-rule="evenodd" d="M22.6977 11H19.593L12.3488 4.69L5.10465 11H2L12.3488 2L22.6977 11ZM7.17442 2V3.81L4.06977 6.5V2H7.17442ZM10.8436 16.4C10.8436 17.6173 9.83501 18.6 8.58562 18.6C7.33624 18.6 6.3277 17.6173 6.3277 16.4C6.3277 15.1827 7.33624 14.2 8.58562 14.2C9.83501 14.2 10.8436 15.1827 10.8436 16.4ZM9.33827 16.4C9.33827 15.9967 8.99958 15.6667 8.58562 15.6667C8.17167 15.6667 7.83298 15.9967 7.83298 16.4C7.83298 16.8033 8.17167 17.1333 8.58562 17.1333C8.99958 17.1333 9.33827 16.8033 9.33827 16.4ZM11.5962 13.4667H17.6173C19.2807 13.4667 20.6279 14.7793 20.6279 16.4V23H19.1226V20.8H5.57505V23H4.06977V12H5.57505V19.3333H11.5962V13.4667ZM13.1015 19.3333H19.1226V16.4C19.1226 15.5933 18.4452 14.9333 17.6173 14.9333H13.1015V19.3333Z" fill="#2387F5"/>
</svg>
