<svg width="24" height="24" viewBox="0 0 24 24" fill="none" xmlns="http://www.w3.org/2000/svg">
<path d="M9.05742 11.0282H7.08157V13.0152H9.05742V11.0282ZM13.0091 11.0282H11.0333V13.0152H13.0091V11.0282ZM16.9608 11.0282H14.985V13.0152H16.9608V11.0282ZM18.9366 4.07387H17.9487V2.08691H15.9729V4.07387H8.0695V2.08691H6.09365V4.07387H5.10573C4.00913 4.07387 3.12988 4.968 3.12988 6.06083V19.9695C3.12988 20.4965 3.33805 21.0019 3.70859 21.3745C4.07914 21.7471 4.5817 21.9565 5.10573 21.9565H18.9366C19.4607 21.9565 19.9632 21.7471 20.3338 21.3745C20.7043 21.0019 20.9125 20.4965 20.9125 19.9695V6.06083C20.9125 5.53385 20.7043 5.02846 20.3338 4.65584C19.9632 4.28321 19.4607 4.07387 18.9366 4.07387ZM18.9366 19.9695H5.10573V9.04126H18.9366V19.9695Z" fill="#2387F5"/>
</svg>
