<svg width="24" height="24" viewBox="0 0 24 24" fill="none" xmlns="http://www.w3.org/2000/svg">
<path d="M15 17.0135V18H3V17.0135C3 17.0135 3.00001 17.0134 3.00001 17.0133C3.00052 17.0046 3.00202 16.9836 3.00595 16.9522C3.01385 16.8889 3.03133 16.7854 3.06938 16.655C3.14509 16.3954 3.30136 16.0313 3.62758 15.6585C4.25703 14.9391 5.69143 14 9 14C12.3086 14 13.743 14.9391 14.3724 15.6585C14.6986 16.0313 14.8549 16.3954 14.9306 16.655C14.9687 16.7854 14.9861 16.8889 14.9941 16.9522C14.998 16.9836 14.9995 17.0046 15 17.0133C15 17.0134 15 17.0135 15 17.0135ZM11.0787 6.11108C11.3534 6.5222 11.5 7.00555 11.5 7.5C11.5 8.16304 11.2366 8.79893 10.7678 9.26777C10.2989 9.73661 9.66304 10 9 10C8.50555 10 8.0222 9.85338 7.61107 9.57868C7.19995 9.30397 6.87952 8.91353 6.6903 8.45671C6.50108 7.99989 6.45157 7.49723 6.54804 7.01228C6.6445 6.52732 6.8826 6.08187 7.23223 5.73223C7.58186 5.3826 8.02732 5.1445 8.51227 5.04804C8.99723 4.95158 9.49989 5.00108 9.95671 5.1903C10.4135 5.37952 10.804 5.69995 11.0787 6.11108Z" stroke="#2387F5" stroke-width="2"/>
<path d="M17.3437 14.7716C16.9878 14.0805 16.4847 13.4758 15.87 13.0001C21.93 13.3701 21.93 17.0001 21.93 17.0001V19.0001H17.93V17.0001C17.8997 16.2233 17.6996 15.4626 17.3437 14.7716Z" fill="#2387F5"/>
<path d="M13 4.59005C13.5685 4.20201 14.2417 3.99622 14.93 4.00005C15.8583 4.00005 16.7485 4.3688 17.4049 5.02518C18.0613 5.68156 18.43 6.57179 18.43 7.50005C18.43 8.42831 18.0613 9.31855 17.4049 9.97493C16.7485 10.6313 15.8583 11.0001 14.93 11.0001C14.2417 11.0039 13.5685 10.7981 13 10.4101C13.6074 9.56132 13.9341 8.54377 13.9341 7.50005C13.9341 6.45634 13.6074 5.43879 13 4.59005Z" fill="#2387F5"/>
</svg>
