<svg width="62" height="60" viewBox="0 0 62 60" fill="none" xmlns="http://www.w3.org/2000/svg">
<path fill-rule="evenodd" clip-rule="evenodd" d="M56.413 38.3628H41.6862L45.2812 36.4063H56.413C56.9534 36.4063 57.3913 35.9684 57.3913 35.428C57.3913 34.8876 56.9534 34.4498 56.413 34.4498H45.0323C44.8689 34.4498 44.7082 34.4906 44.5647 34.5687L37.3792 38.4793C37.377 38.4805 37.3748 38.4816 37.3726 38.4829L30.6522 42.1403L23.9317 38.4829C23.9294 38.4818 23.9272 38.4806 23.925 38.4793L16.7395 34.5687C16.596 34.4906 16.4353 34.4498 16.2719 34.4498H4.8913C4.35091 34.4498 3.91304 34.8876 3.91304 35.428C3.91304 35.9684 4.35091 36.4063 4.8913 36.4063H16.0231L19.6182 38.3628H4.8913C2.19417 38.3628 0 40.557 0 43.2541C0 45.9512 2.19417 48.1454 4.8913 48.1454H56.413C59.1102 48.1454 61.3043 45.9512 61.3043 43.2541C61.3043 40.557 59.1102 38.3628 56.413 38.3628V38.3628ZM56.413 46.1889H4.8913C3.27313 46.1889 1.95652 44.8723 1.95652 43.2541C1.95652 41.6359 3.27313 40.3193 4.8913 40.3193H23.2131L30.1846 44.1134C30.3303 44.1927 30.4913 44.2324 30.6522 44.2324C30.813 44.2324 30.9741 44.1927 31.1198 44.1134L38.0913 40.3193H56.413C58.0312 40.3193 59.3478 41.6359 59.3478 43.2541C59.3478 44.8723 58.0312 46.1889 56.413 46.1889V46.1889Z" fill="black"/>
<path fill-rule="evenodd" clip-rule="evenodd" d="M44.2826 54.9933C44.2826 54.4539 43.8437 54.015 43.3044 54.015C42.765 54.015 42.3261 54.4539 42.3261 54.9933C42.3261 55.5326 42.765 55.9715 43.3044 55.9715C43.8437 55.9715 44.2826 55.5328 44.2826 54.9933V54.9933Z" fill="black"/>
<path fill-rule="evenodd" clip-rule="evenodd" d="M56.4131 50.1019H16.6304C16.0901 50.1019 15.6522 50.5398 15.6522 51.0802C15.6522 51.6206 16.0901 52.0585 16.6304 52.0585H55.3651C54.8891 55.3725 52.0308 57.928 48.587 57.928H12.7174C9.27366 57.928 6.41545 55.3725 5.93923 52.0585H12.7174C13.2578 52.0585 13.6957 51.6206 13.6957 51.0802C13.6957 50.5398 13.2578 50.1019 12.7174 50.1019H4.89132C4.35092 50.1019 3.91306 50.5398 3.91306 51.0802C3.91306 55.935 7.86262 59.8845 12.7174 59.8845H48.587C53.4418 59.8845 57.3913 55.935 57.3913 51.0802C57.3913 50.5399 56.9534 50.1019 56.4131 50.1019V50.1019Z" fill="black"/>
<path fill-rule="evenodd" clip-rule="evenodd" d="M14.087 21.8823C13.5476 21.8823 13.1087 22.3212 13.1087 22.8605C13.1087 23.3999 13.5476 23.8388 14.087 23.8388C14.6263 23.8388 15.0652 23.3999 15.0652 22.8605C15.0652 22.3212 14.6263 21.8823 14.087 21.8823V21.8823Z" fill="black"/>
<path fill-rule="evenodd" clip-rule="evenodd" d="M47.2174 21.8823C46.678 21.8823 46.2391 22.3212 46.2391 22.8605C46.2391 23.3999 46.678 23.8388 47.2174 23.8388C47.7567 23.8388 48.1957 23.3999 48.1957 22.8605C48.1957 22.3212 47.7567 21.8823 47.2174 21.8823V21.8823Z" fill="black"/>
<path fill-rule="evenodd" clip-rule="evenodd" d="M18 24.6214C17.4606 24.6214 17.0217 25.0603 17.0217 25.5997C17.0217 26.139 17.4606 26.5779 18 26.5779C18.5393 26.5779 18.9783 26.139 18.9783 25.5997C18.9783 25.0603 18.5393 24.6214 18 24.6214V24.6214Z" fill="black"/>
<path fill-rule="evenodd" clip-rule="evenodd" d="M4.89132 32.4933H56.4131C56.9534 32.4933 57.3913 32.0554 57.3913 31.515V28.4349C57.3913 20.7034 51.1011 14.4132 43.3696 14.4132H31.6304V10.1904L40.2373 6.21718C40.5836 6.05713 40.8055 5.71044 40.8055 5.32892C40.8055 4.9474 40.5836 4.60057 40.2373 4.44066L31.0623 0.205439C30.7594 0.0656132 30.4059 0.0897437 30.125 0.269613C29.844 0.449352 29.6739 0.760048 29.6739 1.09357V9.5434C29.6737 9.55774 29.6737 9.57209 29.6739 9.58631V14.413H17.9348C10.2033 14.413 3.91306 20.7033 3.91306 28.4348V31.5149C3.91306 32.0554 4.35092 32.4933 4.89132 32.4933V32.4933ZM31.6304 2.62279L37.4932 5.32905L31.6304 8.03544V2.62279V2.62279ZM5.86958 28.4349C5.86958 21.7821 11.282 16.3697 17.9348 16.3697H43.3696C50.0224 16.3697 55.4348 21.7821 55.4348 28.4349V30.5367H5.86958V28.4349V28.4349Z" fill="black"/>
</svg>
