<svg width="60" height="60" viewBox="0 0 60 60" fill="none" xmlns="http://www.w3.org/2000/svg">
<path fill-rule="evenodd" clip-rule="evenodd" d="M16.9976 27.0005H9.99855C9.44637 27.0005 8.99871 27.4481 8.99871 28.0003V37.9989C8.99871 38.551 9.44637 38.9987 9.99855 38.9987H16.9976C17.5498 38.9987 17.9974 38.551 17.9974 37.9989V28.0003C17.9974 27.4481 17.5498 27.0005 16.9976 27.0005V27.0005ZM15.9977 36.999H10.9984V29.0001H15.9977V36.999V36.999Z" fill="black"/>
<path fill-rule="evenodd" clip-rule="evenodd" d="M33.995 27.0005H26.996C26.4438 27.0005 25.9962 27.4481 25.9962 28.0003V37.9989C25.9962 38.551 26.4438 38.9987 26.996 38.9987H33.995C34.5472 38.9987 34.9949 38.551 34.9949 37.9989V28.0003C34.9949 27.4481 34.5472 27.0005 33.995 27.0005V27.0005ZM32.9952 36.999H27.996V29.0001H32.9952V36.999V36.999Z" fill="black"/>
<path fill-rule="evenodd" clip-rule="evenodd" d="M33.995 42.9981H26.996C26.4438 42.9981 25.9962 43.4458 25.9962 43.998V53.9965C25.9962 54.5487 26.4438 54.9964 26.996 54.9964H33.995C34.5472 54.9964 34.9949 54.5487 34.9949 53.9965V43.998C34.9949 43.4459 34.5472 42.9981 33.995 42.9981V42.9981ZM32.9952 52.9967H27.996V44.9978H32.9952V52.9967V52.9967Z" fill="black"/>
<path fill-rule="evenodd" clip-rule="evenodd" d="M49.9928 27.0005H42.9938C42.4416 27.0005 41.9939 27.4481 41.9939 28.0003V37.9989C41.9939 38.551 42.4416 38.9987 42.9938 38.9987H49.9928C50.545 38.9987 50.9926 38.551 50.9926 37.9989V28.0003C50.9926 27.4481 50.545 27.0005 49.9928 27.0005V27.0005ZM48.9929 36.999H43.9937V29.0001H48.9929V36.999V36.999Z" fill="black"/>
<path fill-rule="evenodd" clip-rule="evenodd" d="M16.9976 42.9981H9.99855C9.44637 42.9981 8.99871 43.4458 8.99871 43.998V53.9965C8.99871 54.5487 9.44637 54.9964 9.99855 54.9964H16.9976C17.5498 54.9964 17.9974 54.5487 17.9974 53.9965V43.998C17.9974 43.4459 17.5498 42.9981 16.9976 42.9981V42.9981ZM15.9977 52.9967H10.9984V44.9978H15.9977V52.9967V52.9967Z" fill="black"/>
<path fill-rule="evenodd" clip-rule="evenodd" d="M49.9928 42.9981H42.9938C42.4416 42.9981 41.9939 43.4458 41.9939 43.998V53.9965C41.9939 54.5487 42.4416 54.9964 42.9938 54.9964H49.9928C50.545 54.9964 50.9926 54.5487 50.9926 53.9965V43.998C50.9926 43.4459 50.545 42.9981 49.9928 42.9981V42.9981ZM48.9929 52.9967H43.9937V44.9978H48.9929V52.9967V52.9967Z" fill="black"/>
<path fill-rule="evenodd" clip-rule="evenodd" d="M55.992 57.996V24.0008H56.9918C57.544 24.0008 57.9916 23.5532 57.9916 23.001V18.0018C57.9916 17.4496 57.544 17.0019 56.9918 17.0019H55.992V13.0025C55.992 12.4503 55.5443 12.0027 54.9921 12.0027H52.9924V1.00418C52.9924 0.45199 52.5448 0.0043335 51.9926 0.0043335H7.99887C7.44668 0.0043335 6.99902 0.45199 6.99902 1.00418V12.0026H4.99934C4.44715 12.0026 3.99949 12.4502 3.99949 13.0024V17.0018H2.99965C2.44746 17.0018 1.9998 17.4495 1.9998 18.0016V23.0009C1.9998 23.553 2.44746 24.0007 2.99965 24.0007H3.99949V57.9957H0V59.9954H4.99934H54.9921H60V57.9957H55.992V57.996ZM8.99871 2.00402H50.9926V12.0026H8.99871V2.00402V2.00402ZM5.99918 14.0023H7.99887H51.9925H53.9921V17.0018H5.99918V14.0023V14.0023ZM53.9921 57.996H5.99918V24.0008H53.9923V57.996H53.9921ZM4.99934 22.0011H3.99949V19.0016H4.99934H54.9921H55.992V22.0011H54.9921H4.99934V22.0011Z" fill="black"/>
<path fill-rule="evenodd" clip-rule="evenodd" d="M28.4599 5.42485C28.3009 5.01844 28.0775 4.66747 27.7895 4.37204C27.5016 4.07661 27.155 3.84481 26.7502 3.67688C26.3452 3.50895 25.8968 3.42493 25.4048 3.42493C24.9129 3.42493 24.4637 3.50813 24.0573 3.67465C23.6509 3.84118 23.303 4.07286 23.0135 4.36981C22.7241 4.66676 22.4999 5.01844 22.3409 5.42497C22.1818 5.83137 22.1024 6.27305 22.1024 6.75C22.1024 7.22696 22.1818 7.66864 22.3409 8.07504C22.4999 8.48145 22.7241 8.83313 23.0135 9.1302C23.303 9.42715 23.6509 9.65883 24.0573 9.82536C24.4637 9.99188 24.9129 10.0751 25.4048 10.0751C25.8968 10.0751 26.3452 9.99188 26.7502 9.82536C27.1552 9.65895 27.5016 9.42715 27.7895 9.1302C28.0774 8.83325 28.3009 8.48157 28.4599 8.07504C28.6189 7.66864 28.6984 7.22696 28.6984 6.75C28.6984 6.27293 28.6188 5.83125 28.4599 5.42485V5.42485ZM27.3148 7.71047C27.2203 7.99395 27.0845 8.23395 26.9075 8.43036C26.7306 8.62688 26.5153 8.77758 26.2618 8.88258C26.0084 8.98758 25.7227 9.04008 25.4047 9.04008C25.0868 9.04008 24.8003 8.98758 24.5454 8.88258C24.2904 8.77758 24.0737 8.62688 23.8952 8.43036C23.7168 8.23383 23.5795 7.99395 23.4836 7.71047C23.3876 7.427 23.3395 7.10684 23.3395 6.74989C23.3395 6.39293 23.3876 6.07278 23.4836 5.7893C23.5795 5.50583 23.7168 5.26512 23.8952 5.06719C24.0737 4.86926 24.2904 4.71774 24.5454 4.61274C24.8004 4.50774 25.0868 4.45524 25.4047 4.45524C25.7227 4.45524 26.0084 4.50774 26.2618 4.61274C26.5153 4.71774 26.7305 4.86926 26.9075 5.06719C27.0845 5.26512 27.2202 5.50583 27.3148 5.7893C27.4092 6.07278 27.4564 6.39293 27.4564 6.74989C27.4564 7.10684 27.4093 7.427 27.3148 7.71047V7.71047Z" fill="black"/>
<path fill-rule="evenodd" clip-rule="evenodd" d="M19.9246 3.49689V6.29544H16.8741V3.49689H15.6547V10.0029H16.8741V7.15935H19.9246V10.0029H21.1439V3.49689H19.9246Z" fill="black"/>
<path fill-rule="evenodd" clip-rule="evenodd" d="M41.0176 9.004V3.49689H39.8072V10.0029H43.6227V9.004H41.0176Z" fill="black"/>
<path fill-rule="evenodd" clip-rule="evenodd" d="M28.7523 3.49689V4.49122H30.7186V10.0029H31.9289V4.49122H33.8861V3.49689H28.7523Z" fill="black"/>
<path fill-rule="evenodd" clip-rule="evenodd" d="M38.7589 4.4597V3.49689H34.6555V10.0029H38.7589V9.03552H35.8748V7.19532H38.147V6.26392H35.8748V4.4597H38.7589Z" fill="black"/>
</svg>
