<svg width="24" height="24" viewBox="0 0 24 24" fill="#4267B2" xmlns="http://www.w3.org/2000/svg">
<path fill-rule="evenodd" clip-rule="evenodd" d="M12 22C17.5228 22 22 17.5228 22 12C22 6.47715 17.5228 2 12 2C6.47715 2 2 6.47715 2 12C2 17.5228 6.47715 22 12 22ZM14.6185 5.76677H9.38226C8.42337 5.76677 7.50376 6.14769 6.82572 6.82572C6.14769 7.50376 5.76677 8.42337 5.76677 9.38226V14.6185C5.76677 16.6132 7.38751 18.234 9.38226 18.234H14.6185C15.5774 18.234 16.497 17.8531 17.175 17.175C17.8531 16.497 18.234 15.5774 18.234 14.6185V9.38226C18.234 7.38751 16.6132 5.76677 14.6185 5.76677ZM7.67077 7.67077C8.09162 7.24992 8.66242 7.01349 9.25759 7.01349H14.7432C15.9836 7.01349 16.9873 8.0171 16.9873 9.25759V14.7432C16.9873 15.3383 16.7508 15.9091 16.33 16.33C15.9091 16.7508 15.3383 16.9873 14.7432 16.9873H9.25759C8.0171 16.9873 7.01349 15.9836 7.01349 14.7432V9.25759C7.01349 8.66242 7.24992 8.09162 7.67077 7.67077ZM15.824 8.17675C15.6779 8.03062 15.4797 7.94853 15.273 7.94853C15.0664 7.94853 14.8682 8.03062 14.722 8.17675C14.5759 8.32288 14.4938 8.52107 14.4938 8.72773C14.4938 8.93439 14.5759 9.13258 14.722 9.27871C14.8682 9.42484 15.0664 9.50693 15.273 9.50693C15.4797 9.50693 15.6779 9.42484 15.824 9.27871C15.9701 9.13258 16.0522 8.93439 16.0522 8.72773C16.0522 8.52107 15.9701 8.32288 15.824 8.17675ZM14.2043 9.79646C13.6198 9.21195 12.827 8.88357 12.0004 8.88357C11.1737 8.88357 10.381 9.21195 9.79646 9.79646C9.21195 10.381 8.88357 11.1737 8.88357 12.0004C8.88357 12.827 9.21195 13.6198 9.79646 14.2043C10.381 14.7888 11.1737 15.1172 12.0004 15.1172C12.827 15.1172 13.6198 14.7888 14.2043 14.2043C14.7888 13.6198 15.1172 12.827 15.1172 12.0004C15.1172 11.1737 14.7888 10.381 14.2043 9.79646ZM10.678 10.678C11.0287 10.3273 11.5044 10.1303 12.0004 10.1303C12.4963 10.1303 12.972 10.3273 13.3227 10.678C13.6734 11.0287 13.8705 11.5044 13.8705 12.0004C13.8705 12.4963 13.6734 12.972 13.3227 13.3227C12.972 13.6734 12.4963 13.8705 12.0004 13.8705C11.5044 13.8705 11.0287 13.6734 10.678 13.3227C10.3273 12.972 10.1303 12.4963 10.1303 12.0004C10.1303 11.5044 10.3273 11.0287 10.678 10.678Z" fill="#4267B2"/>
</svg>
