<svg width="25" height="24" viewBox="0 0 25 24" fill="none" xmlns="http://www.w3.org/2000/svg">
<path d="M9.4375 10H23.5V14H21.5V18H17.5V14H13.15C12.33 16.33 10.11 18 7.5 18C5.9087 18 4.38258 17.3679 3.25736 16.2426C2.13214 15.1174 1.5 13.5913 1.5 12C1.5 10.4087 2.13214 8.88258 3.25736 7.75736C4.38258 6.63214 5.9087 6 7.5 6C8.68127 6 9.78264 6.34208 10.7105 6.93261" stroke="#2387F5" stroke-linecap="round"/>
<path d="M5.56947 10.0684C5.05728 10.5806 4.76953 11.2752 4.76953 11.9996C4.76953 12.7239 5.05728 13.4186 5.56947 13.9308C6.08166 14.443 6.77634 14.7307 7.50069 14.7307C8.22504 14.7307 8.91972 14.443 9.43191 13.9308C9.9441 13.4186 10.2319 12.7239 10.2319 11.9996C10.2319 11.2752 9.9441 10.5806 9.43191 10.0684" stroke="#2387F5" stroke-linecap="round"/>
</svg>
