<?xml version="1.0" encoding="utf-8"?>
<!-- Generator: Adobe Illustrator 18.1.0, SVG Export Plug-In . SVG Version: 6.00 Build 0)  -->
<svg version="1.1" id="Слой_1" xmlns="http://www.w3.org/2000/svg" xmlns:xlink="http://www.w3.org/1999/xlink" x="0px" y="0px"
	 viewBox="0 0 1920 1920" enable-background="new 0 0 1920 1920" xml:space="preserve">
<g>
	<line fill="none" stroke="#231F20" stroke-miterlimit="10" x1="1218.1" y1="576.3" x2="1218.1" y2="576.3"/>
	<polyline fill="none" stroke="#231F20" stroke-miterlimit="10" points="1268.8,1196 1391.2,1407.8 1542.9,1670.3 	"/>
	<line fill="none" stroke="#231F20" stroke-miterlimit="10" x1="1218.1" y1="576.3" x2="1218.1" y2="576.3"/>
	<line fill="none" stroke="#231F20" stroke-miterlimit="10" x1="1064.3" y1="842.4" x2="1063.7" y2="843.5"/>
	<polygon fill="#b10609" points="1850.6,1670.3 1544.6,1670.3 1391.9,1407.8 1268.8,1196 1064.3,842.4 1218.1,576.3 1698.8,1407.8 	
		"/>
	<line fill="none" stroke="#231F20" stroke-miterlimit="10" x1="1268.8" y1="1196" x2="1063.7" y2="843.5"/>
	<polygon fill="#b10609" points="1335.6,1670.3 69.4,1670.3 221.2,1407.8 700.6,578.5 804.8,398.3 806.2,395.8 960,129.7 
		1113.8,395.8 960,661.9 959.1,663.5 854.9,843.8 528.8,1407.8 1182.9,1407.8 	"/>
	<line fill="none" stroke="#231F20" stroke-miterlimit="10" x1="1544.6" y1="1670.3" x2="1542.9" y2="1670.3"/>
	<line fill="none" stroke="#231F20" stroke-miterlimit="10" x1="1391.9" y1="1407.8" x2="1391.2" y2="1407.8"/>
</g>
</svg>
