<svg width="63" height="60" viewBox="0 0 63 60" fill="none" xmlns="http://www.w3.org/2000/svg">
<path fill-rule="evenodd" clip-rule="evenodd" d="M62.1787 18.8206C62.1772 18.7996 62.1802 18.7787 62.1775 18.7576L61.0573 9.79579C60.3833 4.40392 55.4055 0.0173645 49.9608 0.0173645H13.3357C7.92352 0.0173645 2.71008 4.33882 1.71401 9.65077L0.0189474 18.6906C0.0149393 18.7119 0.0168826 18.7332 0.0142105 18.7545C0.00825911 18.8011 0 18.847 0 18.8953V36.6628V58.8721C0 59.4854 0.497247 59.9826 1.11049 59.9826H8.88377H18.878H25.5408H35.5351H42.1979H52.1921H61.0759C61.6891 59.9826 62.1864 59.4854 62.1864 58.8721V36.6628V18.8953C62.1862 18.8696 62.1804 18.8457 62.1787 18.8206V18.8206ZM3.89696 10.0601C4.70575 5.747 8.93988 2.23821 13.3357 2.23821H49.9608C54.3243 2.23821 58.3137 5.7521 58.8538 10.0711L59.8179 17.7848H2.44834L3.89696 10.0601V10.0601ZM17.7675 57.7617H9.99425V49.4244C9.99425 47.2862 11.7378 45.5464 13.8809 45.5464C16.024 45.5464 17.7675 47.2862 17.7675 49.4244V57.7617V57.7617ZM34.4246 57.7617H26.6513V49.4244C26.6513 47.2862 28.3948 45.5464 30.5379 45.5464C32.6811 45.5464 34.4246 47.2862 34.4246 49.4244V57.7617V57.7617ZM51.0815 57.7617H43.3082V49.4244C43.3082 47.2862 45.0517 45.5464 47.1949 45.5464C49.338 45.5464 51.0815 47.2862 51.0815 49.4244V57.7617V57.7617ZM59.9653 57.7617H53.3025V49.4245C53.3025 46.0615 50.5626 43.3256 47.1949 43.3256C43.8271 43.3256 41.0872 46.0617 41.0872 49.4245V57.7617H36.6454V49.4245C36.6454 46.0615 33.9056 43.3256 30.5378 43.3256C27.17 43.3256 24.4302 46.0617 24.4302 49.4245V57.7617H19.9884V49.4245C19.9884 46.0615 17.2485 43.3256 13.8808 43.3256C10.513 43.3256 7.77328 46.0617 7.77328 49.4246V57.7618H2.22097V37.7733H59.9654V57.7617H59.9653ZM59.9653 35.5523H2.22097V20.0057H59.9654V35.5523H59.9653Z" fill="black"/>
<path fill-rule="evenodd" clip-rule="evenodd" d="M8.88372 22.2267C6.43453 22.2267 4.44189 24.2202 4.44189 26.6705V32.221C4.44189 32.8342 4.93914 33.3315 5.55238 33.3315H12.2152C12.8284 33.3315 13.3257 32.8342 13.3257 32.221V26.6705C13.3255 24.2202 11.3329 22.2267 8.88372 22.2267V22.2267ZM11.1047 31.1105H6.66274V26.6705C6.66274 25.4449 7.65906 24.4477 8.88372 24.4477C10.1084 24.4477 11.1047 25.4449 11.1047 26.6705V31.1105V31.1105Z" fill="black"/>
<path fill-rule="evenodd" clip-rule="evenodd" d="M19.9883 22.2267C17.5391 22.2267 15.5465 24.2202 15.5465 26.6705V32.221C15.5465 32.8342 16.0438 33.3315 16.657 33.3315H23.3198C23.933 33.3315 24.4303 32.8342 24.4303 32.221V26.6705C24.4303 24.2202 22.4376 22.2267 19.9883 22.2267V22.2267ZM22.2093 31.1105H17.7675V26.6705C17.7675 25.4449 18.7638 24.4477 19.9885 24.4477C21.2131 24.4477 22.2094 25.4449 22.2094 26.6705V31.1105H22.2093Z" fill="black"/>
<path fill-rule="evenodd" clip-rule="evenodd" d="M31.0931 22.2267C28.6439 22.2267 26.6512 24.2202 26.6512 26.6705V32.221C26.6512 32.8342 27.1485 33.3315 27.7617 33.3315H34.4245C35.0378 33.3315 35.535 32.8342 35.535 32.221V26.6705C35.5349 24.2202 33.5423 22.2267 31.0931 22.2267V22.2267ZM33.314 31.1105H28.8722V26.6705C28.8722 25.4449 29.8685 24.4477 31.0932 24.4477C32.3178 24.4477 33.3142 25.4449 33.3142 26.6705V31.1105H33.314Z" fill="black"/>
<path fill-rule="evenodd" clip-rule="evenodd" d="M42.1978 22.2267C39.7486 22.2267 37.756 24.2202 37.756 26.6705V32.221C37.756 32.8342 38.2532 33.3315 38.8665 33.3315H45.5293C46.1425 33.3315 46.6397 32.8342 46.6397 32.221V26.6705C46.6396 24.2202 44.647 22.2267 42.1978 22.2267V22.2267ZM44.4187 31.1105H39.9768V26.6705C39.9768 25.4449 40.9731 24.4477 42.1978 24.4477C43.4225 24.4477 44.4188 25.4449 44.4188 26.6705V31.1105H44.4187Z" fill="black"/>
<path fill-rule="evenodd" clip-rule="evenodd" d="M53.3024 22.2267C50.8532 22.2267 48.8606 24.2202 48.8606 26.6705V32.221C48.8606 32.8342 49.3578 33.3315 49.9711 33.3315H56.6339C57.2471 33.3315 57.7444 32.8342 57.7444 32.221V26.6705C57.7444 24.2202 55.7516 22.2267 53.3024 22.2267V22.2267ZM55.5234 31.1105H51.0816V26.6705C51.0816 25.4449 52.0779 24.4477 53.3025 24.4477C54.5272 24.4477 55.5235 25.4449 55.5235 26.6705V31.1105H55.5234Z" fill="black"/>
</svg>
