<svg width="24" height="24" viewBox="0 0 24 24" fill="none" xmlns="http://www.w3.org/2000/svg">
<path d="M18.3969 6.37381C18.7832 7.16651 19 8.05746 19 9C19 10.5913 18.3679 12.1174 17.2426 13.2426C16.1174 14.3679 14.5913 15 13 15H10V21H6V3H13C13.7763 3 14.5186 3.14743 15.2 3.41597M13.2 11H10V7H13.2C13.7304 7 14.2391 7.21071 14.6142 7.58579C14.9893 7.96086 15.2 8.46957 15.2 9C15.2 9.53043 14.9893 10.0391 14.6142 10.4142C14.2391 10.7893 13.7304 11 13.2 11Z" stroke="#2387F5" stroke-linecap="round"/>
</svg>
