<svg width="25" height="24" viewBox="0 0 25 24" fill="none" xmlns="http://www.w3.org/2000/svg">
<g clip-path="url(#clip0)">
<path d="M10.6879 9.68098C10.027 9.91289 9.4175 10.2658 8.91153 10.7502C7.36826 12.2275 4.06055 15.6587 4.06055 17.9293V21.8778H20.9408V17.9293C20.9408 15.6587 17.6331 12.2275 16.0898 10.7502C15.5838 10.2658 14.9744 9.91289 14.3134 9.68098V9.68098C13.14 9.26925 11.8613 9.26925 10.6879 9.68098V9.68098Z" stroke="#2387F5"/>
<path d="M22.4501 6.79571C22.8032 7.09278 23.1441 7.40523 23.4717 7.73205C23.6405 7.90974 23.7531 8.14665 23.7531 8.42306C23.7531 8.69946 23.6499 8.94624 23.4811 9.12393L21.1554 11.5721C20.9866 11.7497 20.7521 11.8583 20.4708 11.8583C20.2364 11.8583 20.0019 11.7596 19.8331 11.5819C19.0641 10.8613 18.2482 10.2394 17.3292 9.75571C17.0197 9.59776 16.804 9.25226 16.804 8.86727V5.80711C15.4442 5.34315 13.9907 5.09637 12.4996 5.09637C10.9897 5.09637 9.54554 5.34315 8.18575 5.81698V8.87714C8.18575 9.272 7.97005 9.60763 7.66058 9.76558C6.75093 10.2493 5.90691 10.8613 5.16606 11.5918C4.99726 11.7596 4.76281 11.8682 4.52836 11.8682C4.24702 11.8682 4.01258 11.7596 3.84377 11.5819L1.51805 9.1338C1.34925 8.95612 1.24609 8.70933 1.24609 8.43293C1.24609 8.15653 1.34925 7.90974 1.51805 7.73205C4.37832 4.87919 8.24201 3.12207 12.4996 3.12207C13.9907 3.12207 15.4344 3.33855 16.804 3.7429C17.8621 4.05528 18.8759 4.47977 19.8331 5.0032" stroke="#2387F5" stroke-linecap="round"/>
<path d="M15.3495 14.2408C15.6306 14.7585 15.7822 15.3488 15.7822 15.9555C15.7822 16.8719 15.4363 17.7508 14.8207 18.3988C14.2051 19.0468 13.3701 19.4109 12.4995 19.4109C11.6289 19.4109 10.7939 19.0468 10.1783 18.3988C9.56265 17.7508 9.2168 16.8719 9.2168 15.9555C9.2168 15.039 9.56265 14.1601 10.1783 13.5121C10.7939 12.8641 11.6289 12.5 12.4995 12.5C13.0237 12.5 13.535 12.632 13.9933 12.8785" stroke="#2387F5" stroke-linecap="round"/>
</g>
<defs>
<clipPath id="clip0">
<rect width="24" height="24" fill="white" transform="translate(0.5)"/>
</clipPath>
</defs>
</svg>
