<svg width="24" height="24" viewBox="0 0 24 24" fill="none" xmlns="http://www.w3.org/2000/svg">
<path d="M21 13.9995V14.9995C21 16.9095 19.93 18.5695 18.35 19.4095L19 21.9995H17L16.5 19.9995C16.33 19.9995 16.17 19.9995 16 19.9995H8C7.83 19.9995 7.67 19.9995 7.5 19.9995L7 21.9995H5L5.65 19.4095C4.07 18.5695 3 16.9095 3 14.9995V13.9995H2V11.9995H20V4.99953C20 4.73431 20.331 2.48591 18.5494 2.48535C16.7677 2.48479 17.1921 4.06917 17 4.78953C17.63 5.32953 18 6.12953 18 6.99953H12C12 6.20388 12.3161 5.44081 12.8787 4.87821C13.4413 4.3156 14.2044 3.99953 15 3.99953C15.06 3.99953 15.11 3.99953 15.17 3.99953" stroke="#2387F5" stroke-linecap="round"/>
</svg>
