<svg width="24" height="24" viewBox="0 0 24 24" fill="none" xmlns="http://www.w3.org/2000/svg">
<path d="M11.3749 6.23926V8.05525H6.21656L4.26981 12.5952H19.4548C20.0071 12.5952 20.4548 13.0429 20.4548 13.5952V20.7672C20.4548 21.008 20.3592 21.239 20.1889 21.4093C20.0186 21.5795 19.7877 21.6752 19.5469 21.6752H18.6389C18.398 21.6752 18.1671 21.5795 17.9968 21.4093C17.8265 21.239 17.7309 21.008 17.7309 20.7672V19.8592H5.01891V20.7672C5.01891 21.008 4.92325 21.239 4.75296 21.4093C4.58268 21.5795 4.35173 21.6752 4.11091 21.6752H3.20292C2.9621 21.6752 2.73115 21.5795 2.56087 21.4093C2.39059 21.239 2.29492 21.008 2.29492 20.7672V12.5952L4.54675 7.33975C4.68688 7.01287 4.9199 6.73433 5.2169 6.5387C5.51391 6.34306 5.86182 6.23894 6.21747 6.23926H11.3749ZM6.38091 14.4112C6.01968 14.4112 5.67325 14.5547 5.41783 14.8101C5.16241 15.0656 5.01891 15.412 5.01891 15.7732C5.01891 16.1344 5.16241 16.4809 5.41783 16.7363C5.67325 16.9917 6.01968 17.1352 6.38091 17.1352C6.74213 17.1352 7.08856 16.9917 7.34398 16.7363C7.5994 16.4809 7.7429 16.1344 7.7429 15.7732C7.7429 15.412 7.5994 15.0656 7.34398 14.8101C7.08856 14.5547 6.74213 14.4112 6.38091 14.4112ZM16.3689 14.4112C16.0076 14.4112 15.6612 14.5547 15.4058 14.8101C15.1504 15.0656 15.0069 15.412 15.0069 15.7732C15.0069 16.1344 15.1504 16.4809 15.4058 16.7363C15.6612 16.9917 16.0076 17.1352 16.3689 17.1352C16.7301 17.1352 17.0765 16.9917 17.3319 16.7363C17.5874 16.4809 17.7309 16.1344 17.7309 15.7732C17.7309 15.412 17.5874 15.0656 17.3319 14.8101C17.0765 14.5547 16.7301 14.4112 16.3689 14.4112Z" stroke="#2387F5"/>
<path d="M14.3218 6.32541C15.0612 7.77864 16.2526 8.96997 17.7058 9.70942L18.8355 8.57971C18.9793 8.43592 19.1796 8.39484 19.3593 8.45133C19.9344 8.64133 20.5506 8.74403 21.1925 8.74403C21.3287 8.74403 21.4593 8.79813 21.5556 8.89443C21.6519 8.99073 21.706 9.12134 21.706 9.25754V11.0548C21.706 11.191 21.6519 11.3216 21.5556 11.4179C21.4593 11.5142 21.3287 11.5683 21.1925 11.5683C18.8773 11.5683 16.6569 10.6486 15.0197 9.01147C13.3826 7.37435 12.4629 5.15394 12.4629 2.8387C12.4629 2.70251 12.517 2.5719 12.6133 2.4756C12.7096 2.3793 12.8402 2.3252 12.9764 2.3252H14.7737C14.9099 2.3252 15.0405 2.3793 15.1368 2.4756C15.2331 2.5719 15.2872 2.70251 15.2872 2.8387C15.2872 3.48059 15.3899 4.09679 15.5799 4.67192C15.6364 4.85165 15.5953 5.05192 15.4515 5.1957L14.3218 6.32541Z" fill="#2387F5"/>
</svg>
