<svg width="25" height="24" viewBox="0 0 25 24" fill="none" xmlns="http://www.w3.org/2000/svg">
<path d="M21.5 3C22.0304 3 22.5391 3.21071 22.9142 3.58579C23.2893 3.96086 23.5 4.46957 23.5 5V17C23.5 17.5304 23.2893 18.0391 22.9142 18.4142C22.5391 18.7893 22.0304 19 21.5 19H16.5V21H8.5V19H3.5C2.96957 19 2.46086 18.7893 2.08579 18.4142C1.71071 18.0391 1.5 17.5304 1.5 17V5C1.5 4.46957 1.71071 3.96086 2.08579 3.58579C2.46086 3.21071 2.96957 3 3.5 3H19.399" stroke="#2387F5" stroke-linecap="round"/>
<path d="M21.5 3.09375V16C21.5 16.5523 21.0523 17 20.5 17H4.5C3.94772 17 3.5 16.5523 3.5 16V6C3.5 5.44771 3.94772 5 4.5 5H17.5174" stroke="#2387F5" stroke-linecap="round"/>
</svg>
