<svg width="25" height="24" viewBox="0 0 25 24" fill="none" xmlns="http://www.w3.org/2000/svg">
<path fill-rule="evenodd" clip-rule="evenodd" d="M12.457 22C17.9799 22 22.457 17.5228 22.457 12C22.457 6.47715 17.9799 2 12.457 2C6.93418 2 2.45703 6.47715 2.45703 12C2.45703 17.5228 6.93418 22 12.457 22ZM10.165 14.152L9.9711 17.0809C10.255 17.0809 10.3866 16.9493 10.5458 16.7901L11.9237 15.4537L14.7903 17.5725C15.3166 17.8633 15.6974 17.711 15.829 17.0809L17.7123 8.21103C17.9062 7.43552 17.4215 7.08239 16.916 7.31089L5.85815 11.5762C5.10341 11.8808 5.11034 12.3032 5.71966 12.4763L8.55857 13.3765L15.1227 9.22888C15.4343 9.04193 15.7182 9.14579 15.4827 9.36044L10.165 14.152Z" fill="white"/>
</svg>
