<svg width="60" height="60" viewBox="0 0 60 60" fill="none" xmlns="http://www.w3.org/2000/svg">
<path fill-rule="evenodd" clip-rule="evenodd" d="M52.9975 15.6923L52.3449 16.3449C51.1228 17.5671 50.2338 17.9206 48.3822 17.9206C44.6382 17.9206 41.9206 15.2031 41.9206 11.4591C41.9206 9.60738 42.2742 8.71846 43.4963 7.49631L44.1489 6.84369L37.3052 0L0 37.3052L6.84369 44.1489L7.49631 43.4963C8.71846 42.2742 9.60738 41.9206 11.4591 41.9206C15.2031 41.9206 17.9206 44.6382 17.9206 48.3822C17.9206 50.2338 17.5671 51.1228 16.3449 52.3449L15.6923 52.9975L22.536 59.8412L59.8412 22.536L52.9975 15.6923V15.6923ZM18.2769 52.9708C19.3772 51.6591 19.7668 50.3954 19.7668 48.3822C19.7668 43.6458 16.1954 40.0745 11.4591 40.0745C9.44585 40.0745 8.18215 40.464 6.86954 41.5643L2.61046 37.3052L24.3822 15.5335L27.4218 18.5732L28.7271 17.268L25.6874 14.2283L37.3052 2.61046L41.5643 6.87046C40.464 8.18215 40.0745 9.44585 40.0745 11.4591C40.0745 16.1954 43.6458 19.7668 48.3822 19.7668C50.3954 19.7668 51.6591 19.3772 52.9717 18.2769L57.2308 22.536L45.6129 34.1538L42.5732 31.1142L41.268 32.4194L44.3077 35.4591L22.536 57.2308L18.2769 52.9708V52.9708Z" fill="black"/>
<path fill-rule="evenodd" clip-rule="evenodd" d="M32.9603 24.1126L29.268 20.4203L30.5732 19.1151L34.2655 22.8074L32.9603 24.1126V24.1126Z" fill="black"/>
<path fill-rule="evenodd" clip-rule="evenodd" d="M39.4219 30.5742L35.7296 26.8819L37.0348 25.5766L40.7271 29.2689L39.4219 30.5742V30.5742Z" fill="black"/>
</svg>
