<svg width="24" height="24" viewBox="0 0 24 24" fill="none" xmlns="http://www.w3.org/2000/svg">
<path fill-rule="evenodd" clip-rule="evenodd" d="M12 22C17.5228 22 22 17.5228 22 12C22 6.47715 17.5228 2 12 2C6.47715 2 2 6.47715 2 12C2 17.5228 6.47715 22 12 22ZM18.6617 13.2631V18.2047H16.0604V13.6081C16.0604 13.2619 15.9229 12.9299 15.6781 12.6851C15.4333 12.4403 15.1013 12.3028 14.7551 12.3028C14.0372 12.3028 13.4591 12.8902 13.4591 13.6081V18.2047H10.8578V10.4008H13.4591V11.4357C13.9066 10.7085 14.8297 10.2236 15.6222 10.2236C16.4283 10.2236 17.2014 10.5439 17.7714 11.1139C18.3415 11.6839 18.6617 12.457 18.6617 13.2631ZM8.93519 8.47817C8.64144 8.77193 8.24303 8.93696 7.8276 8.93696C6.9605 8.93696 6.2519 8.23768 6.2519 7.37058C6.2519 6.95268 6.41791 6.55189 6.71341 6.25639C7.00891 5.96089 7.4097 5.79488 7.8276 5.79488C8.6947 5.79488 9.39398 6.50348 9.39398 7.37058C9.39398 7.78601 9.22895 8.18442 8.93519 8.47817ZM9.12359 10.4008V18.2047H6.54093V10.4008H9.12359Z" fill="white"/>
</svg>
