<svg width="25" height="24" viewBox="0 0 25 24" fill="none" xmlns="http://www.w3.org/2000/svg">
<path fill-rule="evenodd" clip-rule="evenodd" d="M12 22C17.5228 22 22 17.5228 22 12C22 6.47715 17.5228 2 12 2C6.47715 2 2 6.47715 2 12C2 17.5228 6.47715 22 12 22ZM17.3595 8.43959C17.8865 8.37218 18.3951 8.23124 18.867 8.01676C18.5116 8.5499 18.0703 9.01563 17.5556 9.38331C17.5617 9.49975 17.5617 9.61005 17.5617 9.72649C17.5617 13.2011 14.9083 17.2089 10.0793 17.2089C8.59635 17.2089 7.2114 16.7738 6.04707 16.0261C6.25543 16.0507 6.46378 16.0629 6.67213 16.0629C7.91 16.0629 9.0437 15.6462 9.9384 14.9353C8.78019 14.917 7.81808 14.1448 7.48717 13.1092C7.6465 13.1398 7.81196 13.1582 7.97741 13.1582C8.21641 13.1582 8.44928 13.1276 8.66989 13.0663C7.46878 12.8273 6.56183 11.761 6.56183 10.4864V10.468C6.91726 10.6518 7.32171 10.7744 7.7568 10.7744C7.04595 10.3148 6.58634 9.50588 6.58634 8.59279C6.58634 8.1148 6.71503 7.66133 6.94177 7.27526C8.23479 8.86243 10.1774 9.91033 12.359 10.0206C12.3161 9.83066 12.2916 9.62844 12.2916 9.42008C12.2916 7.96773 13.4682 6.79114 14.9083 6.79114C15.6804 6.79114 16.3606 7.09755 16.8447 7.62456C17.4392 7.502 18.0029 7.28752 18.5116 6.98111C18.3155 7.60005 17.8988 8.1148 17.3595 8.43959Z" fill="white"/>
</svg>
