<svg width="15" height="22" viewBox="0 0 15 22" fill="none" xmlns="http://www.w3.org/2000/svg">
<path d="M4.90604 10.4204C5.59738 11.0979 6.53083 11.475 7.5 11.475C7.9803 11.475 8.45636 11.3823 8.90117 11.2018C9.34601 11.0212 9.75149 10.756 10.094 10.4204C10.4365 10.0847 10.7093 9.68511 10.8958 9.24386C11.0823 8.80257 11.1786 8.32888 11.1786 7.85C11.1786 6.882 10.786 5.95782 10.094 5.27963C9.40262 4.60211 8.46917 4.225 7.5 4.225C6.53083 4.225 5.59738 4.60211 4.90604 5.27963C4.214 5.95782 3.82143 6.882 3.82143 7.85C3.82143 8.818 4.214 9.74218 4.90604 10.4204ZM7.5 19.9832C7.37781 19.8396 7.24319 19.6795 7.0983 19.5046C6.40826 18.6713 5.48993 17.506 4.57367 16.1751C3.6554 14.8413 2.75201 13.3597 2.08135 11.8926C1.40452 10.4121 1 9.02168 1 7.85C1 6.17247 1.67981 4.55946 2.89663 3.36698C4.11413 2.17382 5.76965 1.5 7.5 1.5C9.23035 1.5 10.8859 2.17382 12.1034 3.36698C13.3202 4.55946 14 6.17247 14 7.85C14 9.02168 13.5955 10.4121 12.9187 11.8926C12.248 13.3597 11.3446 14.8413 10.4263 16.1751C9.51007 17.506 8.59174 18.6713 7.9017 19.5046C7.75681 19.6795 7.62219 19.8396 7.5 19.9832Z" stroke="#2387F5" stroke-width="2"/>
</svg>
