<svg width="25" height="24" viewBox="0 0 25 24" fill="none" xmlns="http://www.w3.org/2000/svg">
<path d="M15.33 11.17C16.89 12.73 16.89 15.27 15.33 16.83C13.77 18.39 11.23 18.39 9.67 16.83L15.33 11.17ZM6.5 2H18.5C19.0304 2 19.5391 2.21071 19.9142 2.58579C20.2893 2.96086 20.5 3.46957 20.5 4V20C20.5 20.5304 20.2893 21.0391 19.9142 21.4142C19.5391 21.7893 19.0304 22 18.5 22H6.5C5.96957 22 5.46086 21.7893 5.08579 21.4142C4.71071 21.0391 4.5 20.5304 4.5 20V4C4.5 3.46957 4.71071 2.96086 5.08579 2.58579C5.46086 2.21071 5.96957 2 6.5 2ZM7.5 4C7.23478 4 6.98043 4.10536 6.79289 4.29289C6.60536 4.48043 6.5 4.73478 6.5 5C6.5 5.26522 6.60536 5.51957 6.79289 5.70711C6.98043 5.89464 7.23478 6 7.5 6C7.76522 6 8.01957 5.89464 8.20711 5.70711C8.39464 5.51957 8.5 5.26522 8.5 5C8.5 4.73478 8.39464 4.48043 8.20711 4.29289C8.01957 4.10536 7.76522 4 7.5 4ZM11.5 4C11.2348 4 10.9804 4.10536 10.7929 4.29289C10.6054 4.48043 10.5 4.73478 10.5 5C10.5 5.26522 10.6054 5.51957 10.7929 5.70711C10.9804 5.89464 11.2348 6 11.5 6C11.7652 6 12.0196 5.89464 12.2071 5.70711C12.3946 5.51957 12.5 5.26522 12.5 5C12.5 4.73478 12.3946 4.48043 12.2071 4.29289C12.0196 4.10536 11.7652 4 11.5 4Z" stroke="#2387F5"/>
<path d="M15.4297 8.76389C14.5423 8.26738 13.5349 8 12.5 8C10.9087 8 9.38258 8.63214 8.25736 9.75736C7.13214 10.8826 6.5 12.4087 6.5 14C6.5 15.5913 7.13214 17.1174 8.25736 18.2426C9.38258 19.3679 10.9087 20 12.5 20C14.0913 20 15.6174 19.3679 16.7426 18.2426C17.8679 17.1174 18.5 15.5913 18.5 14C18.5 13.0934 18.2948 12.2079 17.9101 11.4057" stroke="#2387F5" stroke-linecap="round"/>
</svg>
