<svg width="25" height="24" viewBox="0 0 25 24" fill="none" xmlns="http://www.w3.org/2000/svg">
<path d="M12.5012 21L8.90117 16.2C9.90117 15.45 11.1512 15 12.5012 15C13.8512 15 15.1012 15.45 16.1012 16.2L17.9012 13.8C16.4012 12.67 14.5312 12 12.5012 12C10.4712 12 8.60117 12.67 7.10117 13.8L5.30117 11.4C7.31117 9.89 9.80117 9 12.5012 9C15.2012 9 17.6912 9.89 19.7012 11.4L21.5012 9C19.0012 7.12 15.8812 6 12.5012 6C9.12117 6 6.00117 7.12 3.50117 9L1.70117 6.6C4.71117 4.34 8.45117 3 12.5012 3C16.5512 3 20.2912 4.34 23.3012 6.6" stroke="#2387F5" stroke-linecap="round"/>
</svg>
