<svg width="25" height="24" viewBox="0 0 25 24" fill="none" xmlns="http://www.w3.org/2000/svg">
<path d="M20.7643 5.007C21.6552 5.4684 22.5028 6.00199 23.2992 6.6L21.4992 9C18.9992 7.12 15.8792 6 12.4992 6C9.11922 6 5.99922 7.12 3.49922 9L1.69922 6.6C4.70922 4.34 8.44922 3 12.4992 3C13.7319 3 14.9358 3.12413 16.0992 3.36055M17.8992 10.281C18.5331 10.6012 19.135 10.9762 19.6992 11.4L17.8992 13.8C16.3992 12.67 14.5292 12 12.4992 12C10.4692 12 8.59922 12.67 7.09922 13.8L5.29922 11.4C7.30922 9.89 9.79922 9 12.4992 9C13.353 9 14.1858 9.08899 14.989 9.25844M12.4992 21L16.0992 16.2C15.0992 15.45 13.8492 15 12.4992 15C11.1492 15 9.89922 15.45 8.89922 16.2L12.4992 21Z" stroke="#2387F5" stroke-linecap="round"/>
</svg>
