<svg width="25" height="24" viewBox="0 0 25 24" fill="none" xmlns="http://www.w3.org/2000/svg">
<path fill-rule="evenodd" clip-rule="evenodd" d="M12.457 22C17.9799 22 22.457 17.5228 22.457 12C22.457 6.47715 17.9799 2 12.457 2C6.93418 2 2.45703 6.47715 2.45703 12C2.45703 17.5228 6.93418 22 12.457 22ZM14.5903 12.0001L11.1193 14.0065V9.99371L14.5903 12.0001ZM19.0378 10.0405C18.9977 9.50549 18.9375 9.08415 18.8506 8.76981C18.6834 8.1679 18.2955 7.78 17.6936 7.6128C17.0047 7.42553 15.2591 7.31853 12.4569 7.31853L11.3935 7.35865C10.6578 7.35865 9.86196 7.37872 8.99253 7.42553C8.10972 7.46566 7.53455 7.52585 7.22022 7.6128C6.6183 7.78 6.2304 8.1679 6.0632 8.76981C5.87594 9.45867 5.76893 10.5354 5.76893 12.0001L5.80906 12.5619C5.80906 12.9632 5.82912 13.4246 5.87594 13.9597C5.91607 14.4947 5.97626 14.916 6.0632 15.2304C6.2304 15.8323 6.6183 16.2202 7.22022 16.3874C7.90908 16.5747 9.65463 16.6817 12.4569 16.6817L13.5203 16.6415C14.2559 16.6415 15.0518 16.6215 15.9213 16.5747C16.8041 16.5345 17.3792 16.4743 17.6936 16.3874C18.2955 16.2202 18.6834 15.8323 18.8506 15.2304C19.0378 14.5415 19.1448 13.4648 19.1448 12.0001L19.1047 11.4383C19.1047 11.037 19.0847 10.5756 19.0378 10.0405Z" fill="white"/>
</svg>
